<?xml version="1.0" encoding="utf-8" standalone="no"?>
<!DOCTYPE svg PUBLIC "-//W3C//DTD SVG 1.1//EN"
  "http://www.w3.org/Graphics/SVG/1.1/DTD/svg11.dtd">
<svg xmlns:xlink="http://www.w3.org/1999/xlink" width="218.38125pt" height="211.07625pt" viewBox="0 0 218.38125 211.07625" xmlns="http://www.w3.org/2000/svg" version="1.1">
 <metadata>
  <rdf:RDF xmlns:dc="http://purl.org/dc/elements/1.1/" xmlns:cc="http://creativecommons.org/ns#" xmlns:rdf="http://www.w3.org/1999/02/22-rdf-syntax-ns#">
   <cc:Work>
    <dc:type rdf:resource="http://purl.org/dc/dcmitype/StillImage"/>
    <dc:date>2025-06-06T21:08:43.546208</dc:date>
    <dc:format>image/svg+xml</dc:format>
    <dc:creator>
     <cc:Agent>
      <dc:title>Matplotlib v3.10.1, https://matplotlib.org/</dc:title>
     </cc:Agent>
    </dc:creator>
   </cc:Work>
  </rdf:RDF>
 </metadata>
 <defs>
  <style type="text/css">*{stroke-linejoin: round; stroke-linecap: butt}</style>
 </defs>
 <g id="figure_1">
  <g id="patch_1">
   <path d="M 0 211.07625 
L 218.38125 211.07625 
L 218.38125 0 
L 0 0 
z
" style="fill: #ffffff"/>
  </g>
  <g id="axes_1">
   <g id="patch_2">
    <path d="M 43.78125 173.52 
L 211.18125 173.52 
L 211.18125 7.2 
L 43.78125 7.2 
z
" style="fill: #ffffff"/>
   </g>
   <g id="line2d_1">
    <path d="M 51.390341 165.96 
L 51.390341 165.96 
L 51.390341 165.96 
L 51.390341 165.96 
L 51.390341 165.96 
L 51.390341 165.96 
L 51.390341 165.96 
L 51.390341 165.96 
L 51.390341 165.96 
L 51.390341 165.96 
L 51.390341 165.96 
L 51.390341 165.96 
L 51.390341 165.96 
L 51.390341 165.96 
L 51.390341 165.96 
L 51.390341 165.96 
L 51.390341 165.96 
L 51.390341 165.96 
L 51.390341 165.96 
L 51.390341 165.96 
L 51.390341 165.96 
L 51.390341 165.96 
L 51.390341 165.96 
L 51.390341 165.96 
L 51.390341 165.96 
L 51.390341 165.96 
L 51.390341 165.96 
L 51.390341 165.96 
L 51.390341 165.96 
L 51.390341 165.96 
L 51.390341 165.96 
L 51.390341 165.96 
L 51.390341 165.96 
L 51.390341 165.96 
L 51.390341 165.96 
L 51.390341 165.96 
L 51.390341 165.96 
L 51.390341 165.96 
L 51.390341 165.96 
L 51.390341 165.96 
L 51.390341 165.96 
L 51.390341 165.96 
L 51.390341 165.96 
L 51.390341 165.96 
L 51.390341 165.96 
L 51.390341 165.96 
L 51.390341 165.96 
L 51.390341 165.96 
L 51.390341 165.96 
L 51.390341 165.96 
L 51.390341 165.96 
L 51.390341 165.96 
L 51.390341 165.96 
L 51.390341 165.96 
L 51.390341 165.96 
L 51.390341 165.96 
L 51.390341 165.96 
L 51.390341 165.96 
L 51.390341 165.96 
L 51.390341 165.96 
L 51.390341 165.96 
L 51.390341 165.96 
L 51.390341 165.96 
L 51.390341 165.96 
L 51.390341 165.96 
L 51.390341 165.96 
L 51.390341 165.96 
L 51.390341 165.96 
L 51.390341 165.96 
L 51.390341 165.96 
L 51.390341 165.96 
L 51.390341 165.96 
L 51.390341 165.96 
L 51.390341 165.96 
L 51.390341 165.96 
L 51.390341 165.96 
L 51.390341 165.96 
L 51.390341 165.96 
L 51.390341 165.96 
L 51.390341 165.96 
L 51.390341 165.96 
L 51.390341 165.96 
L 51.390341 165.96 
L 51.390341 165.96 
L 51.390341 165.96 
L 51.390341 165.96 
L 51.390341 165.96 
L 51.390341 165.96 
L 51.390341 165.96 
L 51.390341 165.96 
L 51.390341 165.96 
L 51.390341 165.96 
L 51.390341 165.96 
L 51.390341 165.96 
L 51.390341 165.96 
L 51.390341 165.96 
L 51.390341 165.96 
L 51.390341 165.96 
L 51.390341 165.96 
L 51.390341 165.96 
" clip-path="url(#p13057ec332)" style="fill: none; stroke: #ff0000; stroke-width: 1.5; stroke-linecap: square"/>
   </g>
   <g id="line2d_2">
    <path d="M 51.390341 165.96 
L 51.471866 165.93511 
L 51.55339 165.910219 
L 51.634915 165.885329 
L 51.716439 165.860438 
L 51.797964 165.835548 
L 51.879489 165.810658 
L 51.961013 165.785767 
L 52.042538 165.760877 
L 52.124063 165.735986 
L 52.205587 165.711096 
L 52.287112 165.686206 
L 52.368636 165.661315 
L 52.450161 165.636425 
L 52.531686 165.611534 
L 52.61321 165.586644 
L 52.694735 165.561754 
L 52.77626 165.536863 
L 52.857784 165.511973 
L 52.939309 165.487082 
L 53.020833 165.462192 
L 53.102358 165.437302 
L 53.183883 165.412411 
L 53.265407 165.387521 
L 53.346932 165.36263 
L 53.428457 165.33774 
L 53.509981 165.31285 
L 53.591506 165.287959 
L 53.67303 165.263069 
L 53.754555 165.238178 
L 53.83608 165.213288 
L 53.917604 165.188398 
L 53.999129 165.163507 
L 54.080654 165.138617 
L 54.162178 165.113726 
L 54.243703 165.088836 
L 54.325227 165.063945 
L 54.406752 165.039055 
L 54.488277 165.014165 
L 54.569801 164.989274 
L 54.651326 164.964384 
L 54.732851 164.939493 
L 54.814375 164.914603 
L 54.8959 164.889713 
L 54.977424 164.864822 
L 55.058949 164.839932 
L 55.140474 164.815041 
L 55.221998 164.790151 
L 55.303523 164.765261 
L 55.385048 164.74037 
L 55.466572 164.71548 
L 55.548097 164.690589 
L 55.629621 164.665699 
L 55.711146 164.640809 
L 55.792671 164.615918 
L 55.874195 164.591028 
L 55.95572 164.566137 
L 56.037245 164.541247 
L 56.118769 164.516357 
L 56.200294 164.491466 
L 56.281818 164.466576 
L 56.363343 164.441685 
L 56.444868 164.416795 
L 56.526392 164.391905 
L 56.607917 164.367014 
L 56.689442 164.342124 
L 56.770966 164.317233 
L 56.852491 164.292343 
L 56.934015 164.267453 
L 57.01554 164.242562 
L 57.097065 164.217672 
L 57.178589 164.192781 
L 57.260114 164.167891 
L 57.341639 164.143001 
L 57.423163 164.11811 
L 57.504688 164.09322 
L 57.586212 164.068329 
L 57.667737 164.043439 
L 57.749262 164.018549 
L 57.830786 163.993658 
L 57.912311 163.968768 
L 57.993836 163.943877 
L 58.07536 163.918987 
L 58.156885 163.894097 
L 58.238409 163.869206 
L 58.319934 163.844316 
L 58.401459 163.819425 
L 58.482983 163.794535 
L 58.564508 163.769645 
L 58.646033 163.744754 
L 58.727557 163.719864 
L 58.809082 163.694973 
L 58.890606 163.670083 
L 58.972131 163.645193 
L 59.053656 163.620302 
L 59.13518 163.595412 
L 59.216705 163.570521 
L 59.29823 163.545631 
L 59.379754 163.52074 
L 59.461279 163.49585 
" clip-path="url(#p13057ec332)" style="fill: none; stroke: #ff0000; stroke-width: 1.5; stroke-linecap: square"/>
   </g>
   <g id="line2d_3">
    <path d="M 51.390341 165.96 
L 51.531798 165.916812 
L 51.673254 165.873623 
L 51.814711 165.830435 
L 51.956167 165.787247 
L 52.097624 165.744058 
L 52.239081 165.70087 
L 52.380537 165.657682 
L 52.521994 165.614493 
L 52.663451 165.571305 
L 52.804907 165.528117 
L 52.946364 165.484928 
L 53.087821 165.44174 
L 53.229277 165.398552 
L 53.370734 165.355363 
L 53.512191 165.312175 
L 53.653647 165.268987 
L 53.795104 165.225798 
L 53.93656 165.18261 
L 54.078017 165.139422 
L 54.219474 165.096233 
L 54.36093 165.053045 
L 54.502387 165.009857 
L 54.643844 164.966668 
L 54.7853 164.92348 
L 54.926757 164.880292 
L 55.068214 164.837103 
L 55.20967 164.793915 
L 55.351127 164.750727 
L 55.492583 164.707538 
L 55.63404 164.66435 
L 55.775497 164.621162 
L 55.916953 164.577973 
L 56.05841 164.534785 
L 56.199867 164.491597 
L 56.341323 164.448408 
L 56.48278 164.40522 
L 56.624237 164.362032 
L 56.765693 164.318843 
L 56.90715 164.275655 
L 57.048607 164.232467 
L 57.190063 164.189278 
L 57.33152 164.14609 
L 57.472976 164.102902 
L 57.614433 164.059713 
L 57.75589 164.016525 
L 57.897346 163.973337 
L 58.038803 163.930148 
L 58.18026 163.88696 
L 58.321716 163.843772 
L 58.463173 163.800583 
L 58.60463 163.757395 
L 58.746086 163.714207 
L 58.887543 163.671018 
L 59.028999 163.62783 
L 59.170456 163.584642 
L 59.311913 163.541453 
L 59.453369 163.498265 
L 59.594826 162.852794 
L 59.736283 162.171652 
L 59.877739 161.490511 
L 60.019196 160.80937 
L 60.160653 160.128228 
L 60.302109 159.447087 
L 60.443566 158.765945 
L 60.585023 158.084804 
L 60.726479 157.403663 
L 60.867936 156.722521 
L 61.009392 156.04138 
L 61.150849 155.360238 
L 61.292306 154.679097 
L 61.433762 153.997955 
L 61.575219 153.316814 
L 61.716676 152.635673 
L 61.858132 151.954531 
L 61.999589 151.27339 
L 62.141046 150.592248 
L 62.282502 149.911107 
L 62.423959 149.229966 
L 62.565415 148.548824 
L 62.706872 147.867683 
L 62.848329 147.186541 
L 62.989785 146.5054 
L 63.131242 145.824259 
L 63.272699 145.143117 
L 63.414155 144.461976 
L 63.555612 143.780834 
L 63.697069 143.099693 
L 63.838525 142.418552 
L 63.979982 141.73741 
L 64.121439 141.056269 
L 64.262895 140.375127 
L 64.404352 139.693986 
L 64.545808 139.012845 
L 64.687265 138.331703 
L 64.828722 137.650562 
L 64.970178 136.96942 
L 65.111635 136.288279 
L 65.253092 135.607138 
L 65.394548 134.925996 
" clip-path="url(#p13057ec332)" style="fill: none; stroke: #ff0000; stroke-width: 1.5; stroke-linecap: square"/>
   </g>
   <g id="line2d_4">
    <path d="M 51.390341 165.96 
L 51.590949 165.898752 
L 51.791558 165.837504 
L 51.992166 165.776256 
L 52.192775 165.715008 
L 52.393383 165.65376 
L 52.593991 165.592512 
L 52.7946 165.531264 
L 52.995208 165.470016 
L 53.195816 165.408768 
L 53.396425 165.34752 
L 53.597033 165.286272 
L 53.797642 165.225023 
L 53.99825 165.163775 
L 54.198858 165.102527 
L 54.399467 165.041279 
L 54.600075 164.980031 
L 54.800684 164.918783 
L 55.001292 164.857535 
L 55.2019 164.796287 
L 55.402509 164.735039 
L 55.603117 164.673791 
L 55.803726 164.612543 
L 56.004334 164.551295 
L 56.204942 164.490047 
L 56.405551 164.428799 
L 56.606159 164.367551 
L 56.806768 164.306303 
L 57.007376 164.245055 
L 57.207984 164.183807 
L 57.408593 164.122559 
L 57.609201 164.061311 
L 57.80981 164.000063 
L 58.010418 163.938815 
L 58.211026 163.877566 
L 58.411635 163.816318 
L 58.612243 163.75507 
L 58.812852 163.693822 
L 59.01346 163.632574 
L 59.214068 163.571326 
L 59.414677 163.510078 
L 59.615285 162.754279 
L 59.815894 161.78831 
L 60.016502 160.822341 
L 60.21711 159.856373 
L 60.417719 158.890404 
L 60.618327 157.924435 
L 60.818936 156.958467 
L 61.019544 155.992498 
L 61.220152 155.026529 
L 61.420761 154.060561 
L 61.621369 153.094592 
L 61.821978 152.128623 
L 62.022586 151.162654 
L 62.223194 150.196686 
L 62.423803 149.230717 
L 62.624411 148.264748 
L 62.82502 147.29878 
L 63.025628 146.332811 
L 63.226236 145.366842 
L 63.426845 144.400874 
L 63.627453 143.434905 
L 63.828062 142.468936 
L 64.02867 141.502968 
L 64.229278 140.536999 
L 64.429887 139.57103 
L 64.630495 138.605061 
L 64.831104 137.639093 
L 65.031712 136.673124 
L 65.23232 135.707155 
L 65.432929 134.594686 
L 65.633537 132.862979 
L 65.834146 131.131273 
L 66.034754 129.399567 
L 66.235362 127.667861 
L 66.435971 125.936155 
L 66.636579 124.204449 
L 66.837188 122.472743 
L 67.037796 120.741037 
L 67.238404 119.009331 
L 67.439013 117.277625 
L 67.639621 115.545919 
L 67.84023 113.814213 
L 68.040838 112.082507 
L 68.241446 110.350801 
L 68.442055 108.619095 
L 68.642663 106.887389 
L 68.843272 105.155683 
L 69.04388 103.423977 
L 69.244488 101.692271 
L 69.445097 99.960565 
L 69.645705 98.228859 
L 69.846314 96.497153 
L 70.046922 94.765447 
L 70.24753 93.033741 
L 70.448139 91.302035 
L 70.648747 89.570329 
L 70.849356 87.838623 
L 71.049964 86.106917 
L 71.250572 84.375211 
" clip-path="url(#p13057ec332)" style="fill: none; stroke: #ff0000; stroke-width: 1.5; stroke-linecap: square"/>
   </g>
   <g id="line2d_5">
    <path d="M 51.390341 165.96 
L 51.650093 165.880695 
L 51.909845 165.80139 
L 52.169597 165.722084 
L 52.429349 165.642779 
L 52.689101 165.563474 
L 52.948853 165.484169 
L 53.208605 165.404863 
L 53.468356 165.325558 
L 53.728108 165.246253 
L 53.98786 165.166948 
L 54.247612 165.087642 
L 54.507364 165.008337 
L 54.767116 164.929032 
L 55.026868 164.849727 
L 55.28662 164.770421 
L 55.546372 164.691116 
L 55.806124 164.611811 
L 56.065876 164.532506 
L 56.325628 164.4532 
L 56.58538 164.373895 
L 56.845132 164.29459 
L 57.104884 164.215285 
L 57.364636 164.135979 
L 57.624388 164.056674 
L 57.884139 163.977369 
L 58.143891 163.898064 
L 58.403643 163.818758 
L 58.663395 163.739453 
L 58.923147 163.660148 
L 59.182899 163.580843 
L 59.442651 163.501537 
L 59.702403 162.334789 
L 59.962155 161.084033 
L 60.221907 159.833276 
L 60.481659 158.58252 
L 60.741411 157.331764 
L 61.001163 156.081007 
L 61.260915 154.830251 
L 61.520667 153.579494 
L 61.780419 152.328738 
L 62.040171 151.077981 
L 62.299922 149.827225 
L 62.559674 148.576469 
L 62.819426 147.325712 
L 63.079178 146.074956 
L 63.33893 144.824199 
L 63.598682 143.573443 
L 63.858434 142.322686 
L 64.118186 141.07193 
L 64.377938 139.821174 
L 64.63769 138.570417 
L 64.897442 137.319661 
L 65.157194 136.068904 
L 65.416946 134.732655 
L 65.676698 132.490406 
L 65.93645 130.248157 
L 66.196202 128.005907 
L 66.455954 125.763658 
L 66.715706 123.521409 
L 66.975457 121.27916 
L 67.235209 119.036911 
L 67.494961 116.794662 
L 67.754713 114.552413 
L 68.014465 112.310164 
L 68.274217 110.067914 
L 68.533969 107.825665 
L 68.793721 105.583416 
L 69.053473 103.341167 
L 69.313225 101.098918 
L 69.572977 98.856669 
L 69.832729 96.61442 
L 70.092481 94.372171 
L 70.352233 92.129922 
L 70.611985 89.887672 
L 70.871737 87.645423 
L 71.131489 85.403174 
L 71.39124 83.452752 
L 71.650992 81.749377 
L 71.910744 80.046003 
L 72.170496 78.342629 
L 72.430248 76.639255 
L 72.69 74.93588 
L 72.949752 73.232506 
L 73.209504 71.529132 
L 73.469256 69.825757 
L 73.729008 68.122383 
L 73.98876 66.419009 
L 74.248512 64.715635 
L 74.508264 63.01226 
L 74.768016 61.308886 
L 75.027768 59.605512 
L 75.28752 57.902137 
L 75.547272 56.198763 
L 75.807024 54.495389 
L 76.066775 52.792015 
L 76.326527 51.08864 
L 76.586279 49.385266 
L 76.846031 47.681892 
L 77.105783 45.978517 
" clip-path="url(#p13057ec332)" style="fill: none; stroke: #ff0000; stroke-width: 1.5; stroke-linecap: square"/>
   </g>
   <g id="line2d_6">
    <path d="M 51.390341 165.96 
L 51.677065 165.87246 
L 51.963789 165.78492 
L 52.250514 165.697379 
L 52.537238 165.609839 
L 52.823962 165.522299 
L 53.110686 165.434759 
L 53.39741 165.347219 
L 53.684135 165.259678 
L 53.970859 165.172138 
L 54.257583 165.084598 
L 54.544307 164.997058 
L 54.831032 164.909518 
L 55.117756 164.821977 
L 55.40448 164.734437 
L 55.691204 164.646897 
L 55.977928 164.559357 
L 56.264653 164.471817 
L 56.551377 164.384276 
L 56.838101 164.296736 
L 57.124825 164.209196 
L 57.41155 164.121656 
L 57.698274 164.034116 
L 57.984998 163.946576 
L 58.271722 163.859035 
L 58.558447 163.771495 
L 58.845171 163.683955 
L 59.131895 163.596415 
L 59.418619 163.508875 
L 59.705343 162.320631 
L 59.992068 160.939998 
L 60.278792 159.559365 
L 60.565516 158.178731 
L 60.85224 156.798098 
L 61.138965 155.417465 
L 61.425689 154.036832 
L 61.712413 152.656198 
L 61.999137 151.275565 
L 62.285861 149.894932 
L 62.572586 148.514299 
L 62.85931 147.133665 
L 63.146034 145.753032 
L 63.432758 144.372399 
L 63.719483 142.991766 
L 64.006207 141.611132 
L 64.292931 140.230499 
L 64.579655 138.849866 
L 64.866379 137.469233 
L 65.153104 136.088599 
L 65.439828 134.53513 
L 65.726552 132.060049 
L 66.013276 129.584968 
L 66.300001 127.109887 
L 66.586725 124.634806 
L 66.873449 122.159725 
L 67.160173 119.684643 
L 67.446897 117.209562 
L 67.733622 114.734481 
L 68.020346 112.2594 
L 68.30707 109.784319 
L 68.593794 107.309238 
L 68.880519 104.834157 
L 69.167243 102.359075 
L 69.453967 99.883994 
L 69.740691 97.408913 
L 70.027415 94.933832 
L 70.31414 92.458751 
L 70.600864 89.98367 
L 70.887588 87.508588 
L 71.174312 85.033507 
L 71.461037 82.99505 
L 71.747761 81.1148 
L 72.034485 79.234549 
L 72.321209 77.354299 
L 72.607933 75.474049 
L 72.894658 73.593798 
L 73.181382 71.713548 
L 73.468106 69.833298 
L 73.75483 67.953048 
L 74.041555 66.072797 
L 74.328279 64.192547 
L 74.615003 62.312297 
L 74.901727 60.432046 
L 75.188452 58.551796 
L 75.475176 56.671546 
L 75.7619 54.791295 
L 76.048624 52.911045 
L 76.335348 51.030795 
L 76.622073 49.150544 
L 76.908797 47.270294 
L 77.195521 45.541457 
L 77.482245 44.144994 
L 77.76897 42.74853 
L 78.055694 41.352066 
L 78.342418 39.955602 
L 78.629142 38.559138 
L 78.915866 37.162674 
L 79.202591 35.76621 
L 79.489315 34.369746 
L 79.776039 32.973282 
" clip-path="url(#p13057ec332)" style="fill: none; stroke: #ff0000; stroke-width: 1.5; stroke-linecap: square"/>
   </g>
   <g id="line2d_7">
    <path d="M 51.390341 165.96 
L 51.736217 165.8544 
L 52.082093 165.7488 
L 52.427969 165.6432 
L 52.773845 165.5376 
L 53.119721 165.432 
L 53.465597 165.326401 
L 53.811473 165.220801 
L 54.157349 165.115201 
L 54.503225 165.009601 
L 54.849101 164.904001 
L 55.194977 164.798401 
L 55.540853 164.692801 
L 55.886729 164.587201 
L 56.232605 164.481601 
L 56.578481 164.376001 
L 56.924357 164.270402 
L 57.270233 164.164802 
L 57.616109 164.059202 
L 57.961985 163.953602 
L 58.307861 163.848002 
L 58.653737 163.742402 
L 58.999613 163.636802 
L 59.345488 163.531202 
L 59.691364 162.387942 
L 60.03724 160.722482 
L 60.383116 159.057021 
L 60.728992 157.391561 
L 61.074868 155.7261 
L 61.420744 154.06064 
L 61.76662 152.395179 
L 62.112496 150.729719 
L 62.458372 149.064258 
L 62.804248 147.398797 
L 63.150124 145.733337 
L 63.496 144.067876 
L 63.841876 142.402416 
L 64.187752 140.736955 
L 64.533628 139.071495 
L 64.879504 137.406034 
L 65.22538 135.740574 
L 65.571256 133.400606 
L 65.917132 130.414911 
L 66.263008 127.429216 
L 66.608884 124.443521 
L 66.95476 121.457825 
L 67.300636 118.47213 
L 67.646512 115.486435 
L 67.992388 112.50074 
L 68.338264 109.515045 
L 68.68414 106.52935 
L 69.030016 103.543654 
L 69.375892 100.557959 
L 69.721768 97.572264 
L 70.067644 94.586569 
L 70.41352 91.600874 
L 70.759396 88.615179 
L 71.105272 85.629484 
L 71.451148 83.059897 
L 71.797024 80.791748 
L 72.1429 78.523598 
L 72.488776 76.255449 
L 72.834652 73.987299 
L 73.180528 71.71915 
L 73.526404 69.451 
L 73.87228 67.18285 
L 74.218156 64.914701 
L 74.564032 62.646551 
L 74.909908 60.378402 
L 75.255784 58.110252 
L 75.60166 55.842103 
L 75.947536 53.573953 
L 76.293412 51.305804 
L 76.639288 49.037654 
L 76.985164 46.769504 
L 77.33104 44.881427 
L 77.676916 43.19687 
L 78.022792 41.512313 
L 78.368667 39.827756 
L 78.714543 38.143199 
L 79.060419 36.458642 
L 79.406295 34.774084 
L 79.752171 33.089527 
L 80.098047 31.971778 
L 80.443923 30.896042 
L 80.789799 29.820306 
L 81.135675 28.74457 
L 81.481551 27.668834 
L 81.827427 26.593098 
L 82.173303 25.517362 
L 82.519179 24.441625 
L 82.865055 23.365889 
L 83.210931 22.290153 
L 83.556807 21.214417 
L 83.902683 20.138681 
L 84.248559 19.062945 
L 84.594435 17.987208 
L 84.940311 16.911472 
L 85.286187 15.835736 
L 85.632063 14.76 
" clip-path="url(#p13057ec332)" style="fill: none; stroke: #ff0000; stroke-width: 1.5; stroke-linecap: square"/>
   </g>
   <g id="line2d_8">
    <path d="M 51.390341 165.96 
L 51.79536 165.836343 
L 52.20038 165.712686 
L 52.605399 165.589029 
L 53.010419 165.465372 
L 53.415439 165.341714 
L 53.820458 165.218057 
L 54.225478 165.0944 
L 54.630497 164.970743 
L 55.035517 164.847086 
L 55.440536 164.723429 
L 55.845556 164.599772 
L 56.250575 164.476115 
L 56.655595 164.352458 
L 57.060614 164.2288 
L 57.465634 164.105143 
L 57.870653 163.981486 
L 58.275673 163.857829 
L 58.680692 163.734172 
L 59.085712 163.610515 
L 59.490731 163.35403 
L 59.895751 161.403781 
L 60.30077 159.453533 
L 60.70579 157.503285 
L 61.11081 155.553037 
L 61.515829 153.602788 
L 61.920849 151.65254 
L 62.325868 149.702292 
L 62.730888 147.752043 
L 63.135907 145.801795 
L 63.540927 143.851547 
L 63.945946 141.901299 
L 64.350966 139.95105 
L 64.755985 138.000802 
L 65.161005 136.050554 
L 65.566024 133.445769 
L 65.971044 129.94953 
L 66.376063 126.453292 
L 66.781083 122.957054 
L 67.186102 119.460816 
L 67.591122 115.964577 
L 67.996141 112.468339 
L 68.401161 108.972101 
L 68.806181 105.475863 
L 69.2112 101.979624 
L 69.61622 98.483386 
L 70.021239 94.987148 
L 70.426259 91.49091 
L 70.831278 87.994671 
L 71.236298 84.498433 
L 71.641317 81.812824 
L 72.046337 79.156829 
L 72.451356 76.500835 
L 72.856376 73.84484 
L 73.261395 71.188845 
L 73.666415 68.53285 
L 74.071434 65.876855 
L 74.476454 63.22086 
L 74.881473 60.564865 
L 75.286493 57.90887 
L 75.691512 55.252875 
L 76.096532 52.59688 
L 76.501552 49.940885 
L 76.906571 47.28489 
L 77.311591 44.976152 
L 77.71661 43.003541 
L 78.12163 41.030931 
L 78.526649 39.058321 
L 78.931669 37.08571 
L 79.336688 35.1131 
L 79.741708 33.14049 
L 80.146727 31.820375 
L 80.551747 30.560692 
L 80.956766 29.301009 
L 81.361786 28.041326 
L 81.766805 26.781643 
L 82.171825 25.52196 
L 82.576844 24.262276 
L 82.981864 23.002593 
L 83.386883 21.74291 
L 83.791903 20.483227 
L 84.196923 19.223544 
L 84.601942 17.963861 
L 85.006962 16.704178 
L 85.411981 15.444494 
L 85.817001 14.797787 
L 86.22202 14.880543 
L 86.62704 14.963298 
L 87.032059 15.046053 
L 87.437079 15.128809 
L 87.842098 15.211564 
L 88.247118 15.29432 
L 88.652137 15.377075 
L 89.057157 15.45983 
L 89.462176 15.542586 
L 89.867196 15.625341 
L 90.272215 15.708096 
L 90.677235 15.790852 
L 91.082254 15.873607 
L 91.487274 15.956363 
" clip-path="url(#p13057ec332)" style="fill: none; stroke: #ff0000; stroke-width: 1.5; stroke-linecap: square"/>
   </g>
   <g id="line2d_9">
    <path d="M 51.390341 165.96 
L 51.854512 165.818283 
L 52.318683 165.676566 
L 52.782855 165.53485 
L 53.247026 165.393133 
L 53.711197 165.251416 
L 54.175369 165.109699 
L 54.63954 164.967982 
L 55.103711 164.826265 
L 55.567882 164.684549 
L 56.032054 164.542832 
L 56.496225 164.401115 
L 56.960396 164.259398 
L 57.424568 164.117681 
L 57.888739 163.975965 
L 58.35291 163.834248 
L 58.817081 163.692531 
L 59.281253 163.550814 
L 59.745424 162.127635 
L 60.209595 159.892559 
L 60.673767 157.657484 
L 61.137938 155.422408 
L 61.602109 153.187333 
L 62.06628 150.952257 
L 62.530452 148.717182 
L 62.994623 146.482106 
L 63.458794 144.24703 
L 63.922966 142.011955 
L 64.387137 139.776879 
L 64.851308 137.541804 
L 65.315479 135.306728 
L 65.779651 131.601688 
L 66.243822 127.594836 
L 66.707993 123.587983 
L 67.172165 119.581131 
L 67.636336 115.574279 
L 68.100507 111.567427 
L 68.564678 107.560574 
L 69.02885 103.553722 
L 69.493021 99.54687 
L 69.957192 95.540018 
L 70.421364 91.533165 
L 70.885535 87.526313 
L 71.349706 83.725121 
L 71.813877 80.681227 
L 72.278049 77.637333 
L 72.74222 74.593439 
L 73.206391 71.549545 
L 73.670563 68.50565 
L 74.134734 65.461756 
L 74.598905 62.417862 
L 75.063076 59.373968 
L 75.527248 56.330074 
L 75.991419 53.28618 
L 76.45559 50.242285 
L 76.919762 47.198391 
L 77.383933 44.623815 
L 77.848104 42.363112 
L 78.312275 40.102408 
L 78.776447 37.841705 
L 79.240618 35.581001 
L 79.704789 33.320298 
L 80.168961 31.751226 
L 80.633132 30.30757 
L 81.097303 28.863915 
L 81.561474 27.420259 
L 82.025646 25.976603 
L 82.489817 24.532948 
L 82.953988 23.089292 
L 83.41816 21.645636 
L 83.882331 20.20198 
L 84.346502 18.758325 
L 84.810673 17.314669 
L 85.274845 15.871013 
L 85.739016 14.781853 
L 86.203187 14.876695 
L 86.667358 14.971536 
L 87.13153 15.066378 
L 87.595701 15.161219 
L 88.059872 15.256061 
L 88.524044 15.350902 
L 88.988215 15.445744 
L 89.452386 15.540585 
L 89.916557 15.635427 
L 90.380729 15.730268 
L 90.8449 15.82511 
L 91.309071 15.919951 
L 91.773243 16.115934 
L 92.237414 16.374943 
L 92.701585 16.633952 
L 93.165756 16.89296 
L 93.629928 17.151969 
L 94.094099 17.410978 
L 94.55827 17.669987 
L 95.022442 17.928996 
L 95.486613 18.188004 
L 95.950784 18.447013 
L 96.414955 18.706022 
L 96.879127 18.965031 
L 97.343298 19.22404 
" clip-path="url(#p13057ec332)" style="fill: none; stroke: #ff0000; stroke-width: 1.5; stroke-linecap: square"/>
   </g>
   <g id="line2d_10">
    <path d="M 51.390341 165.96 
L 51.913648 165.800228 
L 52.436954 165.640457 
L 52.960261 165.480685 
L 53.483567 165.320914 
L 54.006874 165.161142 
L 54.530181 165.001371 
L 55.053487 164.841599 
L 55.576794 164.681828 
L 56.1001 164.522056 
L 56.623407 164.362285 
L 57.146714 164.202513 
L 57.67002 164.042742 
L 58.193327 163.88297 
L 58.716634 163.723199 
L 59.23994 163.563427 
L 59.763247 162.041815 
L 60.286553 159.521991 
L 60.80986 157.002168 
L 61.333167 154.482344 
L 61.856473 151.96252 
L 62.37978 149.442696 
L 62.903086 146.922873 
L 63.426393 144.403049 
L 63.9497 141.883225 
L 64.473006 139.363401 
L 64.996313 136.843577 
L 65.51962 133.846347 
L 66.042926 129.329023 
L 66.566233 124.811699 
L 67.089539 120.294374 
L 67.612846 115.77705 
L 68.136153 111.259725 
L 68.659459 106.742401 
L 69.182766 102.225076 
L 69.706072 97.707752 
L 70.229379 93.190428 
L 70.752686 88.673103 
L 71.275992 84.208514 
L 71.799299 80.776829 
L 72.322606 77.345143 
L 72.845912 73.913457 
L 73.369219 70.481771 
L 73.892525 67.050086 
L 74.415832 63.6184 
L 74.939139 60.186714 
L 75.462445 56.755029 
L 75.985752 53.323343 
L 76.509058 49.891657 
L 77.032365 46.459971 
L 77.555672 43.787377 
L 78.078978 41.23866 
L 78.602285 38.689944 
L 79.125592 36.141227 
L 79.648898 33.59251 
L 80.172205 31.741136 
L 80.695511 30.113559 
L 81.218818 28.485982 
L 81.742125 26.858404 
L 82.265431 25.230827 
L 82.788738 23.60325 
L 83.312044 21.975673 
L 83.835351 20.348096 
L 84.358658 18.720519 
L 84.881964 17.092941 
L 85.405271 15.465364 
L 85.928578 14.820585 
L 86.451884 14.927509 
L 86.975191 15.034434 
L 87.498497 15.141358 
L 88.021804 15.248282 
L 88.545111 15.355207 
L 89.068417 15.462131 
L 89.591724 15.569055 
L 90.11503 15.67598 
L 90.638337 15.782904 
L 91.161644 15.889828 
L 91.68495 16.066667 
L 92.208257 16.358673 
L 92.731564 16.65068 
L 93.25487 16.942686 
L 93.778177 17.234692 
L 94.301483 17.526699 
L 94.82479 17.818705 
L 95.348097 18.110712 
L 95.871403 18.402718 
L 96.39471 18.694725 
L 96.918016 18.986731 
L 97.441323 19.19743 
L 97.96463 19.055377 
L 98.487936 18.913323 
L 99.011243 18.77127 
L 99.53455 18.629216 
L 100.057856 18.487163 
L 100.581163 18.345109 
L 101.104469 18.203056 
L 101.627776 18.061002 
L 102.151083 17.918949 
L 102.674389 17.776895 
L 103.197696 17.634842 
" clip-path="url(#p13057ec332)" style="fill: none; stroke: #ff0000; stroke-width: 1.5; stroke-linecap: square"/>
   </g>
   <g id="line2d_11">
    <path d="M 51.390341 165.96 
L 51.972791 165.782171 
L 52.555241 165.604343 
L 53.137691 165.426514 
L 53.720142 165.248685 
L 54.302592 165.070856 
L 54.885042 164.893028 
L 55.467492 164.715199 
L 56.049942 164.53737 
L 56.632392 164.359542 
L 57.214843 164.181713 
L 57.797293 164.003884 
L 58.379743 163.826055 
L 58.962193 163.648227 
L 59.544643 163.094434 
L 60.127093 160.289823 
L 60.709543 157.485211 
L 61.291994 154.6806 
L 61.874444 151.875988 
L 62.456894 149.071377 
L 63.039344 146.266765 
L 63.621794 143.462154 
L 64.204244 140.657542 
L 64.786695 137.852931 
L 65.369145 135.048319 
L 65.951595 130.117419 
L 66.534045 125.089551 
L 67.116495 120.061684 
L 67.698945 115.033816 
L 68.281396 110.005949 
L 68.863846 104.978081 
L 69.446296 99.950214 
L 70.028746 94.922346 
L 70.611196 89.894479 
L 71.193646 84.866611 
L 71.776097 80.928983 
L 72.358547 77.109452 
L 72.940997 73.289921 
L 73.523447 69.47039 
L 74.105897 65.650859 
L 74.688347 61.831327 
L 75.270797 58.011796 
L 75.853248 54.192265 
L 76.435698 50.372734 
L 77.018148 46.553203 
L 77.600598 43.568567 
L 78.183048 40.731797 
L 78.765498 37.895027 
L 79.347949 35.058257 
L 79.930399 32.493196 
L 80.512849 30.681672 
L 81.095299 28.870148 
L 81.677749 27.058623 
L 82.260199 25.247099 
L 82.84265 23.435575 
L 83.4251 21.624051 
L 84.00755 19.812527 
L 84.59 18.001003 
L 85.17245 16.189478 
L 85.7549 14.785099 
L 86.33735 14.904107 
L 86.919801 15.023116 
L 87.502251 15.142125 
L 88.084701 15.261134 
L 88.667151 15.380143 
L 89.249601 15.499151 
L 89.832051 15.61816 
L 90.414502 15.737169 
L 90.996952 15.856178 
L 91.579402 16.00777 
L 92.161852 16.332779 
L 92.744302 16.657788 
L 93.326752 16.982796 
L 93.909203 17.307805 
L 94.491653 17.632814 
L 95.074103 17.957823 
L 95.656553 18.282831 
L 96.239003 18.60784 
L 96.821453 18.932849 
L 97.403904 19.207588 
L 97.986354 19.04948 
L 98.568804 18.891372 
L 99.151254 18.733263 
L 99.733704 18.575155 
L 100.316154 18.417047 
L 100.898604 18.258938 
L 101.481055 18.10083 
L 102.063505 17.942722 
L 102.645955 17.784614 
L 103.228405 17.709981 
L 103.810855 19.135127 
L 104.393305 20.560272 
L 104.975756 21.985417 
L 105.558206 23.410562 
L 106.140656 24.835707 
L 106.723106 26.260852 
L 107.305556 27.685997 
L 107.888006 29.111143 
L 108.470457 30.536288 
L 109.052907 31.961433 
" clip-path="url(#p13057ec332)" style="fill: none; stroke: #ff0000; stroke-width: 1.5; stroke-linecap: square"/>
   </g>
   <g id="line2d_12">
    <path d="M 51.390341 165.96 
L 52.031926 165.764117 
L 52.673512 165.568233 
L 53.315097 165.37235 
L 53.956683 165.176466 
L 54.598268 164.980583 
L 55.239854 164.7847 
L 55.881439 164.588816 
L 56.523025 164.392933 
L 57.16461 164.197049 
L 57.806196 164.001166 
L 58.447781 163.805282 
L 59.089367 163.609399 
L 59.730952 162.197319 
L 60.372538 159.10796 
L 61.014123 156.0186 
L 61.655709 152.92924 
L 62.297294 149.83988 
L 62.93888 146.750521 
L 63.580465 143.661161 
L 64.222051 140.571801 
L 64.863636 137.482442 
L 65.505222 133.970633 
L 66.146807 128.432294 
L 66.788393 122.893954 
L 67.429978 117.355614 
L 68.071564 111.817274 
L 68.713149 106.278935 
L 69.354735 100.740595 
L 69.99632 95.202255 
L 70.637906 89.663915 
L 71.279491 84.18557 
L 71.921077 79.978247 
L 72.562662 75.770925 
L 73.204248 71.563602 
L 73.845833 67.356279 
L 74.487419 63.148957 
L 75.129004 58.941634 
L 75.77059 54.734312 
L 76.412175 50.526989 
L 77.053761 46.319666 
L 77.695346 43.107106 
L 78.336932 39.982323 
L 78.978517 36.85754 
L 79.620103 33.732757 
L 80.261688 31.462827 
L 80.903273 29.467381 
L 81.544859 27.471936 
L 82.186444 25.47649 
L 82.82803 23.481045 
L 83.469615 21.485599 
L 84.111201 19.490153 
L 84.752786 17.494708 
L 85.394372 15.499262 
L 86.035957 14.842525 
L 86.677543 14.973617 
L 87.319128 15.104709 
L 87.960714 15.2358 
L 88.602299 15.366892 
L 89.243885 15.497983 
L 89.88547 15.629075 
L 90.527056 15.760167 
L 91.168641 15.891258 
L 91.810227 16.136571 
L 92.451812 16.494578 
L 93.093398 16.852584 
L 93.734983 17.21059 
L 94.376569 17.568597 
L 95.018154 17.926603 
L 95.65974 18.28461 
L 96.301325 18.642616 
L 96.942911 19.000623 
L 97.584496 19.158566 
L 98.226082 18.984405 
L 98.867667 18.810244 
L 99.509253 18.636083 
L 100.150838 18.461922 
L 100.792424 18.287762 
L 101.434009 18.113601 
L 102.075595 17.93944 
L 102.71718 17.765279 
L 103.358766 18.028949 
L 104.000351 19.598787 
L 104.641937 21.168625 
L 105.283522 22.738463 
L 105.925108 24.308301 
L 106.566693 25.878139 
L 107.208279 27.447978 
L 107.849864 29.017816 
L 108.49145 30.587654 
L 109.133035 32.020332 
L 109.774621 32.491936 
L 110.416206 32.96354 
L 111.057792 33.435144 
L 111.699377 33.906748 
L 112.340963 34.378352 
L 112.982548 34.849955 
L 113.624134 35.321559 
L 114.265719 35.793163 
L 114.907305 36.264767 
" clip-path="url(#p13057ec332)" style="fill: none; stroke: #ff0000; stroke-width: 1.5; stroke-linecap: square"/>
   </g>
   <g id="line2d_13">
    <path d="M 51.390341 165.96 
L 52.069568 165.752624 
L 52.748794 165.545249 
L 53.428021 165.337873 
L 54.107248 165.130497 
L 54.786475 164.923121 
L 55.465702 164.715746 
L 56.144928 164.50837 
L 56.824155 164.300994 
L 57.503382 164.093618 
L 58.182609 163.886243 
L 58.861835 163.678867 
L 59.541062 163.111677 
L 60.220289 159.841067 
L 60.899516 156.570458 
L 61.578742 153.299848 
L 62.257969 150.029238 
L 62.937196 146.758628 
L 63.616423 143.488018 
L 64.29565 140.217409 
L 64.974876 136.946799 
L 65.654103 132.685449 
L 66.33333 126.822179 
L 67.012557 120.95891 
L 67.691783 115.09564 
L 68.37101 109.232371 
L 69.050237 103.369101 
L 69.729464 97.505832 
L 70.408691 91.642562 
L 71.087917 85.779293 
L 71.767144 80.98769 
L 72.446371 76.533528 
L 73.125598 72.079365 
L 73.804824 67.625202 
L 74.484051 63.171039 
L 75.163278 58.716877 
L 75.842505 54.262714 
L 76.521731 49.808551 
L 77.200958 45.514976 
L 77.880185 42.206865 
L 78.559412 38.898753 
L 79.238639 35.590642 
L 79.917865 32.532177 
L 80.597092 30.41966 
L 81.276319 28.307143 
L 81.955546 26.194627 
L 82.634772 24.08211 
L 83.313999 21.969593 
L 83.993226 19.857077 
L 84.672453 17.74456 
L 85.35168 15.632043 
L 86.030906 14.841493 
L 86.710133 14.980276 
L 87.38936 15.119059 
L 88.068587 15.257841 
L 88.747813 15.396624 
L 89.42704 15.535407 
L 90.106267 15.674189 
L 90.785494 15.812972 
L 91.46472 15.951754 
L 92.143947 16.322788 
L 92.823174 16.701798 
L 93.502401 17.080809 
L 94.181628 17.459819 
L 94.860854 17.838829 
L 95.540081 18.21784 
L 96.219308 18.59685 
L 96.898535 18.975861 
L 97.577761 19.160394 
L 98.256988 18.976015 
L 98.936215 18.791636 
L 99.615442 18.607258 
L 100.294668 18.422879 
L 100.973895 18.238501 
L 101.653122 18.054122 
L 102.332349 17.869743 
L 103.011576 17.685365 
L 103.690802 18.84138 
L 104.370029 20.503319 
L 105.049256 22.165258 
L 105.728483 23.827197 
L 106.407709 25.489136 
L 107.086936 27.151076 
L 107.766163 28.813015 
L 108.44539 30.474954 
L 109.124617 32.014144 
L 109.803843 32.513416 
L 110.48307 33.012689 
L 111.162297 33.511961 
L 111.841524 34.011234 
L 112.52075 34.510506 
L 113.199977 35.009779 
L 113.879204 35.509051 
L 114.558431 36.008324 
L 115.237657 36.338638 
L 115.916884 36.490521 
L 116.596111 36.642405 
L 117.275338 36.794288 
L 117.954565 36.946171 
L 118.633791 37.098055 
" clip-path="url(#p13057ec332)" style="fill: none; stroke: #ff0000; stroke-width: 1.5; stroke-linecap: square"/>
   </g>
   <g id="line2d_14">
    <path d="M 51.390341 165.96 
L 52.128514 165.734627 
L 52.866687 165.509255 
L 53.604861 165.283882 
L 54.343034 165.058509 
L 55.081207 164.833136 
L 55.81938 164.607764 
L 56.557553 164.382391 
L 57.295726 164.157018 
L 58.0339 163.931645 
L 58.772073 163.706273 
L 59.510246 163.260063 
L 60.248419 159.705614 
L 60.986592 156.151166 
L 61.724766 152.596718 
L 62.462939 149.042269 
L 63.201112 145.487821 
L 63.939285 141.933372 
L 64.677458 138.378924 
L 65.415632 134.743999 
L 66.153805 128.371888 
L 66.891978 121.999777 
L 67.630151 115.627666 
L 68.368324 109.255555 
L 69.106498 102.883444 
L 69.844671 96.511333 
L 70.582844 90.139222 
L 71.321017 83.913254 
L 72.05919 79.072539 
L 72.797364 74.231823 
L 73.535537 69.391108 
L 74.27371 64.550392 
L 75.011883 59.709677 
L 75.750056 54.868961 
L 76.48823 50.028246 
L 77.226403 45.391051 
L 77.964576 41.795846 
L 78.702749 38.200641 
L 79.440922 34.605437 
L 80.179096 31.719704 
L 80.917269 29.423853 
L 81.655442 27.128003 
L 82.393615 24.832152 
L 83.131788 22.536301 
L 83.869962 20.240451 
L 84.608135 17.9446 
L 85.346308 15.648749 
L 86.084481 14.85244 
L 86.822654 15.003267 
L 87.560828 15.154094 
L 88.299001 15.304921 
L 89.037174 15.455747 
L 89.775347 15.606574 
L 90.51352 15.757401 
L 91.251694 15.908228 
L 91.989867 16.236811 
L 92.72804 16.648713 
L 93.466213 17.060616 
L 94.204386 17.472519 
L 94.94256 17.884421 
L 95.680733 18.296324 
L 96.418906 18.708226 
L 97.157079 19.120129 
L 97.895252 19.07421 
L 98.633426 18.87383 
L 99.371599 18.67345 
L 100.109772 18.47307 
L 100.847945 18.27269 
L 101.586118 18.07231 
L 102.324292 17.87193 
L 103.062465 17.671551 
L 103.800638 19.110127 
L 104.538811 20.916297 
L 105.276984 22.722467 
L 106.015158 24.528637 
L 106.753331 26.334806 
L 107.491504 28.140976 
L 108.229677 29.947146 
L 108.96785 31.753316 
L 109.706024 32.441513 
L 110.444197 32.984115 
L 111.18237 33.526716 
L 111.920543 34.069318 
L 112.658716 34.61192 
L 113.39689 35.154521 
L 114.135063 35.697123 
L 114.873236 36.239725 
L 115.611409 36.422213 
L 116.349582 36.587278 
L 117.087756 36.752342 
L 117.825929 36.917407 
L 118.564102 37.082471 
L 119.302275 37.626459 
L 120.040448 38.20995 
L 120.778622 38.793441 
L 121.516795 39.376932 
L 122.254968 39.960423 
L 122.993141 40.543914 
L 123.731314 41.127405 
L 124.469488 41.710896 
" clip-path="url(#p13057ec332)" style="fill: none; stroke: #ff0000; stroke-width: 1.5; stroke-linecap: square"/>
   </g>
   <g id="line2d_15">
    <path d="M 51.390341 165.96 
L 52.185103 165.71735 
L 52.979866 165.4747 
L 53.774628 165.23205 
L 54.569391 164.9894 
L 55.364153 164.74675 
L 56.158915 164.504099 
L 56.953678 164.261449 
L 57.74844 164.018799 
L 58.543203 163.776149 
L 59.337965 163.533499 
L 60.132728 160.262693 
L 60.92749 156.435756 
L 61.722252 152.608819 
L 62.517015 148.781883 
L 63.311777 144.954946 
L 64.10654 141.12801 
L 64.901302 137.301073 
L 65.696065 132.323226 
L 66.490827 125.462622 
L 67.285589 118.602017 
L 68.080352 111.741413 
L 68.875114 104.880808 
L 69.669877 98.020203 
L 70.464639 91.159599 
L 71.259402 84.317311 
L 72.054164 79.105501 
L 72.848926 73.893691 
L 73.643689 68.68188 
L 74.438451 63.47007 
L 75.233214 58.258259 
L 76.027976 53.046449 
L 76.822739 47.834639 
L 77.617501 43.486243 
L 78.412263 39.615426 
L 79.207026 35.744609 
L 80.001788 32.271162 
L 80.796551 29.799308 
L 81.591313 27.327455 
L 82.386075 24.855602 
L 83.180838 22.383749 
L 83.9756 19.911895 
L 84.770363 17.440042 
L 85.565125 14.968189 
L 86.359888 14.908712 
L 87.15465 15.071102 
L 87.949412 15.233491 
L 88.744175 15.39588 
L 89.538937 15.55827 
L 90.3337 15.720659 
L 91.128462 15.883049 
L 91.923225 16.199624 
L 92.717987 16.643104 
L 93.512749 17.086583 
L 94.307512 17.530063 
L 95.102274 17.973542 
L 95.897037 18.417022 
L 96.691799 18.860502 
L 97.486562 19.18515 
L 98.281324 18.969409 
L 99.076086 18.753668 
L 99.870849 18.537927 
L 100.665611 18.322185 
L 101.460374 18.106444 
L 102.255136 17.890703 
L 103.049899 17.674962 
L 103.844661 19.217843 
L 104.639423 21.162476 
L 105.434186 23.107109 
L 106.228948 25.051742 
L 107.023711 26.996375 
L 107.818473 28.941008 
L 108.613236 30.885641 
L 109.407998 32.222446 
L 110.20276 32.806644 
L 110.997523 33.390843 
L 111.792285 33.975041 
L 112.587048 34.559239 
L 113.38181 35.143437 
L 114.176573 35.727635 
L 114.971335 36.279085 
L 115.766097 36.456804 
L 116.56086 36.634522 
L 117.355622 36.812241 
L 118.150385 36.989959 
L 118.945147 37.344166 
L 119.739909 37.972388 
L 120.534672 38.60061 
L 121.329434 39.228832 
L 122.124197 39.857054 
L 122.918959 40.485276 
L 123.713722 41.113498 
L 124.508484 41.714169 
L 125.303246 41.780874 
L 126.098009 41.84758 
L 126.892771 41.914285 
L 127.687534 41.980991 
L 128.482296 42.047697 
L 129.277059 42.114402 
L 130.071821 42.181108 
" clip-path="url(#p13057ec332)" style="fill: none; stroke: #ff0000; stroke-width: 1.5; stroke-linecap: square"/>
   </g>
   <g id="line2d_16">
    <path d="M 51.390341 165.96 
L 52.252164 165.696875 
L 53.113988 165.433751 
L 53.975812 165.170626 
L 54.837635 164.907502 
L 55.699459 164.644377 
L 56.561282 164.381252 
L 57.423106 164.118128 
L 58.284929 163.855003 
L 59.146753 163.591879 
L 60.008576 160.860506 
L 60.8704 156.710657 
L 61.732223 152.560808 
L 62.594047 148.410959 
L 63.45587 144.26111 
L 64.317694 140.111261 
L 65.179517 135.961412 
L 66.041341 129.342707 
L 66.903165 121.903212 
L 67.764988 114.463718 
L 68.626812 107.024224 
L 69.488635 99.58473 
L 70.350459 92.145236 
L 71.212282 84.705742 
L 72.074106 78.974729 
L 72.935929 73.323152 
L 73.797753 67.671576 
L 74.659576 62.019999 
L 75.5214 56.368422 
L 76.383223 50.716845 
L 77.245047 45.300246 
L 78.10687 41.102814 
L 78.968694 36.905382 
L 79.830518 32.803844 
L 80.692341 30.123419 
L 81.554165 27.442994 
L 82.415988 24.762568 
L 83.277812 22.082143 
L 84.139635 19.401718 
L 85.001459 16.721292 
L 85.863282 14.807244 
L 86.725106 14.983335 
L 87.586929 15.159427 
L 88.448753 15.335519 
L 89.310576 15.51161 
L 90.1724 15.687702 
L 91.034223 15.863793 
L 91.896047 16.184459 
L 92.757871 16.665359 
L 93.619694 17.146259 
L 94.481518 17.627159 
L 95.343341 18.108058 
L 96.205165 18.588958 
L 97.066988 19.069858 
L 97.928812 19.0651 
L 98.790635 18.831155 
L 99.652459 18.597209 
L 100.514282 18.363264 
L 101.376106 18.129319 
L 102.237929 17.895374 
L 103.099753 17.661429 
L 103.961576 19.503913 
L 104.8234 21.612632 
L 105.685224 23.72135 
L 106.547047 25.830069 
L 107.408871 27.938788 
L 108.270694 30.047507 
L 109.132518 32.019952 
L 109.994341 32.653444 
L 110.856165 33.286936 
L 111.717988 33.920428 
L 112.579812 34.55392 
L 113.441635 35.187412 
L 114.303459 35.820904 
L 115.165282 36.322454 
L 116.027106 36.515168 
L 116.888929 36.707882 
L 117.750753 36.900597 
L 118.612577 37.093311 
L 119.4744 37.762516 
L 120.336224 38.443746 
L 121.198047 39.124977 
L 122.059871 39.806208 
L 122.921694 40.487438 
L 123.783518 41.168669 
L 124.645341 41.725655 
L 125.507165 41.797989 
L 126.368988 41.870323 
L 127.230812 41.942658 
L 128.092635 42.014992 
L 128.954459 42.087326 
L 129.816282 42.15966 
L 130.678106 42.188174 
L 131.53993 42.198218 
L 132.401753 42.208263 
L 133.263577 42.218307 
L 134.1254 42.228351 
L 134.987224 42.238396 
L 135.849047 42.24844 
L 136.710871 42.258484 
" clip-path="url(#p13057ec332)" style="fill: none; stroke: #ff0000; stroke-width: 1.5; stroke-linecap: square"/>
   </g>
   <g id="line2d_17">
    <path d="M 51.390341 165.96 
L 52.288845 165.685676 
L 53.187349 165.411353 
L 54.085853 165.137029 
L 54.984356 164.862706 
L 55.88286 164.588382 
L 56.781364 164.314059 
L 57.679868 164.039735 
L 58.578372 163.765412 
L 59.476876 163.420748 
L 60.37538 159.094276 
L 61.273883 154.767804 
L 62.172387 150.441332 
L 63.070891 146.11486 
L 63.969395 141.788388 
L 64.867899 137.461916 
L 65.766403 131.716048 
L 66.664907 123.959919 
L 67.56341 116.20379 
L 68.461914 108.447662 
L 69.360418 100.691533 
L 70.258922 92.935404 
L 71.157426 85.179275 
L 72.05593 79.093921 
L 72.954434 73.201806 
L 73.852938 67.309691 
L 74.751441 61.417575 
L 75.649945 55.52546 
L 76.548449 49.633345 
L 77.446953 44.316881 
L 78.345457 39.940801 
L 79.243961 35.564721 
L 80.142465 31.833633 
L 81.040968 29.039125 
L 81.939472 26.244618 
L 82.837976 23.45011 
L 83.73648 20.655602 
L 84.634984 17.861095 
L 85.533488 15.066587 
L 86.431992 14.923445 
L 87.330496 15.107031 
L 88.228999 15.290618 
L 89.127503 15.474204 
L 90.026007 15.65779 
L 90.924511 15.841376 
L 91.823015 16.143707 
L 92.721519 16.645074 
L 93.620023 17.146442 
L 94.518526 17.64781 
L 95.41703 18.149177 
L 96.315534 18.650545 
L 97.214038 19.151912 
L 98.112542 19.015226 
L 99.011046 18.771323 
L 99.90955 18.527421 
L 100.808054 18.283519 
L 101.706557 18.039617 
L 102.605061 17.795714 
L 103.503565 18.383246 
L 104.402069 20.581714 
L 105.300573 22.780183 
L 106.199077 24.978652 
L 107.097581 27.17712 
L 107.996084 29.375589 
L 108.894588 31.574058 
L 109.793092 32.505514 
L 110.691596 33.165968 
L 111.5901 33.826422 
L 112.488604 34.486877 
L 113.387108 35.147331 
L 114.285611 35.807785 
L 115.184115 36.326665 
L 116.082619 36.527582 
L 116.981123 36.728498 
L 117.879627 36.929414 
L 118.778131 37.212148 
L 119.676635 37.922373 
L 120.575139 38.632597 
L 121.473642 39.342822 
L 122.372146 40.053047 
L 123.27065 40.763271 
L 124.169154 41.473496 
L 125.067658 41.761101 
L 125.966162 41.836514 
L 126.864666 41.911926 
L 127.763169 41.987339 
L 128.661673 42.062752 
L 129.560177 42.138165 
L 130.458681 42.185617 
L 131.357185 42.196088 
L 132.255689 42.20656 
L 133.154193 42.217032 
L 134.052697 42.227504 
L 134.9512 42.237976 
L 135.849704 42.248448 
L 136.748208 42.255057 
L 137.646712 42.172585 
L 138.545216 42.090113 
L 139.44372 42.007641 
L 140.342224 41.925169 
" clip-path="url(#p13057ec332)" style="fill: none; stroke: #ff0000; stroke-width: 1.5; stroke-linecap: square"/>
   </g>
   <g id="line2d_18">
    <path d="M 51.390341 165.96 
L 52.347988 165.667619 
L 53.305636 165.375239 
L 54.263283 165.082858 
L 55.220931 164.790477 
L 56.178578 164.498096 
L 57.136225 164.205716 
L 58.093873 163.913335 
L 59.05152 163.620954 
L 60.009168 160.857658 
L 60.966815 156.246398 
L 61.924462 151.635139 
L 62.88211 147.023879 
L 63.839757 142.412619 
L 64.797405 137.80136 
L 65.755052 131.81403 
L 66.712699 123.547358 
L 67.670347 115.280686 
L 68.627994 107.014015 
L 69.585642 98.747343 
L 70.543289 90.480671 
L 71.500937 82.733398 
L 72.458584 76.453438 
L 73.416231 70.173477 
L 74.373879 63.893517 
L 75.331526 57.613556 
L 76.289174 51.333595 
L 77.246821 45.291606 
L 78.204468 40.627472 
L 79.162116 35.963339 
L 80.119763 31.904238 
L 81.077411 28.925784 
L 82.035058 25.947329 
L 82.992705 22.968874 
L 83.950353 19.99042 
L 84.908 17.011965 
L 85.865648 14.807727 
L 86.823295 15.003398 
L 87.780942 15.199069 
L 88.73859 15.394739 
L 89.696237 15.59041 
L 90.653885 15.786081 
L 91.611532 16.025699 
L 92.56918 16.560069 
L 93.526827 17.094439 
L 94.484474 17.628808 
L 95.442122 18.163178 
L 96.399769 18.697548 
L 97.357417 19.220207 
L 98.315064 18.96025 
L 99.272711 18.700293 
L 100.230359 18.440336 
L 101.188006 18.180379 
L 102.145654 17.920422 
L 103.103301 17.660465 
L 104.060948 19.747057 
L 105.018596 22.090239 
L 105.976243 24.433421 
L 106.933891 26.776602 
L 107.891538 29.119784 
L 108.849186 31.462966 
L 109.806833 32.515614 
L 110.76448 33.219542 
L 111.722128 33.923471 
L 112.679775 34.627399 
L 113.637423 35.331328 
L 114.59507 36.035256 
L 115.552717 36.409089 
L 116.510365 36.623231 
L 117.468012 36.837372 
L 118.42566 37.051514 
L 119.383307 37.690511 
L 120.340954 38.447486 
L 121.298602 39.204461 
L 122.256249 39.961436 
L 123.213897 40.718411 
L 124.171544 41.475385 
L 125.129191 41.766265 
L 126.086839 41.846642 
L 127.044486 41.927019 
L 128.002134 42.007396 
L 128.959781 42.087773 
L 129.917429 42.168149 
L 130.875076 42.19047 
L 131.832723 42.201631 
L 132.790371 42.212792 
L 133.748018 42.223953 
L 134.705666 42.235114 
L 135.663313 42.246275 
L 136.62096 42.257437 
L 137.578608 42.178836 
L 138.536255 42.090936 
L 139.493903 42.003035 
L 140.45155 41.92617 
L 141.409197 41.934931 
L 142.366845 41.943692 
L 143.324492 41.952454 
L 144.28214 41.961215 
L 145.239787 41.969977 
L 146.197434 41.978738 
" clip-path="url(#p13057ec332)" style="fill: none; stroke: #ff0000; stroke-width: 1.5; stroke-linecap: square"/>
   </g>
   <g id="line2d_19">
    <path d="M 51.390341 165.96 
L 52.407132 165.649562 
L 53.423923 165.339124 
L 54.440714 165.028686 
L 55.457505 164.718248 
L 56.474296 164.40781 
L 57.491087 164.097372 
L 58.507878 163.786934 
L 59.524669 163.190616 
L 60.541459 158.294568 
L 61.55825 153.398521 
L 62.575041 148.502474 
L 63.591832 143.606426 
L 64.608623 138.710379 
L 65.625414 132.933099 
L 66.642205 124.155884 
L 67.658996 115.378669 
L 68.675787 106.601454 
L 69.692578 97.824239 
L 70.709369 89.047024 
L 71.72616 81.256451 
L 72.742951 74.588645 
L 73.759742 67.920839 
L 74.776533 61.253033 
L 75.793324 54.585227 
L 76.810115 47.917421 
L 77.826906 42.466357 
L 78.843697 37.51417 
L 79.860488 32.710632 
L 80.877279 29.54823 
L 81.89407 26.385828 
L 82.91086 23.223427 
L 83.927651 20.061025 
L 84.944442 16.898623 
L 85.961233 14.827258 
L 86.978024 15.035013 
L 87.994815 15.242768 
L 89.011606 15.450523 
L 90.028397 15.658278 
L 91.045188 15.866034 
L 92.061979 16.27705 
L 93.07877 16.844422 
L 94.095561 17.411794 
L 95.112352 17.979166 
L 96.129143 18.546538 
L 97.145934 19.11391 
L 98.162725 19.001603 
L 99.179516 18.725592 
L 100.196307 18.44958 
L 101.213098 18.173568 
L 102.229889 17.897556 
L 103.24668 17.754696 
L 104.263471 20.24259 
L 105.280261 22.730485 
L 106.297052 25.21838 
L 107.313843 27.706275 
L 108.330634 30.194169 
L 109.347425 32.177922 
L 110.364216 32.925324 
L 111.381007 33.672727 
L 112.397798 34.420129 
L 113.414589 35.167532 
L 114.43138 35.914934 
L 115.448171 36.385711 
L 116.464962 36.613078 
L 117.481753 36.840445 
L 118.498544 37.067812 
L 119.515335 37.794873 
L 120.532126 38.598598 
L 121.548917 39.402323 
L 122.565708 40.206048 
L 123.582499 41.009773 
L 124.59929 41.72179 
L 125.616081 41.807131 
L 126.632872 41.892472 
L 127.649662 41.977812 
L 128.666453 42.063153 
L 129.683244 42.148494 
L 130.700035 42.188429 
L 131.716826 42.20028 
L 132.733617 42.21213 
L 133.750408 42.223981 
L 134.767199 42.235831 
L 135.78399 42.247682 
L 136.800781 42.250232 
L 137.817572 42.156902 
L 138.834363 42.063573 
L 139.851154 41.970244 
L 140.867945 41.929979 
L 141.884736 41.939282 
L 142.901527 41.948584 
L 143.918318 41.957887 
L 144.935109 41.967189 
L 145.9519 41.976492 
L 146.968691 42.331543 
L 147.985482 42.796667 
L 149.002273 43.261791 
L 150.019063 43.726914 
L 151.035854 44.192038 
L 152.052645 44.657162 
" clip-path="url(#p13057ec332)" style="fill: none; stroke: #ff0000; stroke-width: 1.5; stroke-linecap: square"/>
   </g>
   <g id="line2d_20">
    <path d="M 51.390341 165.96 
L 52.466275 165.631505 
L 53.54221 165.30301 
L 54.618144 164.974515 
L 55.694079 164.646019 
L 56.770013 164.317524 
L 57.845948 163.989029 
L 58.921882 163.660534 
L 59.997817 160.912314 
L 61.073751 155.731479 
L 62.149686 150.550644 
L 63.22562 145.369808 
L 64.301555 140.188973 
L 65.377489 135.008138 
L 66.453424 125.785495 
L 67.529358 116.497737 
L 68.605293 107.209979 
L 69.681227 97.922221 
L 70.757162 88.634463 
L 71.833096 80.555195 
L 72.909031 73.499544 
L 73.984965 66.443892 
L 75.0609 59.388241 
L 76.136834 52.332589 
L 77.212769 45.457454 
L 78.288703 40.217214 
L 79.364638 34.976974 
L 80.440572 30.906465 
L 81.516507 27.560116 
L 82.592441 24.213767 
L 83.668376 20.867418 
L 84.74431 17.52107 
L 85.820245 14.79845 
L 86.896179 15.01829 
L 87.972114 15.23813 
L 89.048048 15.457969 
L 90.123983 15.677809 
L 91.199917 15.897649 
L 92.275852 16.396391 
L 93.351786 16.996766 
L 94.427721 17.59714 
L 95.503655 18.197514 
L 96.57959 18.797888 
L 97.655524 19.139285 
L 98.731459 18.847218 
L 99.807393 18.555152 
L 100.883328 18.263085 
L 101.959262 17.971019 
L 103.035197 17.678953 
L 104.111131 19.869845 
L 105.187066 22.502453 
L 106.263 25.135061 
L 107.338935 27.767669 
L 108.414869 30.400276 
L 109.490804 32.283314 
L 110.566738 33.07419 
L 111.642673 33.865067 
L 112.718607 34.655943 
L 113.794542 35.44682 
L 114.870476 36.237696 
L 115.946411 36.497124 
L 117.022345 36.737716 
L 118.09828 36.978308 
L 119.174214 37.525233 
L 120.250149 38.375708 
L 121.326083 39.226184 
L 122.402018 40.076659 
L 123.477952 40.927134 
L 124.553887 41.717979 
L 125.629821 41.808284 
L 126.705756 41.898589 
L 127.78169 41.988894 
L 128.857625 42.079198 
L 129.933559 42.169503 
L 131.009494 42.192036 
L 132.085428 42.204576 
L 133.161363 42.217116 
L 134.237297 42.229655 
L 135.313232 42.242195 
L 136.389166 42.254735 
L 137.465101 42.189255 
L 138.541035 42.090497 
L 139.61697 41.991739 
L 140.692904 41.928378 
L 141.768839 41.938221 
L 142.844773 41.948065 
L 143.920708 41.957909 
L 144.996642 41.967752 
L 146.072577 41.977596 
L 147.148511 42.413801 
L 148.224446 42.90598 
L 149.30038 43.398158 
L 150.376315 43.890336 
L 151.452249 44.382515 
L 152.528184 44.556614 
L 153.604118 44.329118 
L 154.680053 44.101622 
L 155.755987 43.874126 
L 156.831922 43.646631 
L 157.907856 43.419135 
" clip-path="url(#p13057ec332)" style="fill: none; stroke: #ff0000; stroke-width: 1.5; stroke-linecap: square"/>
   </g>
   <g id="line2d_21">
    <path d="M 51.390341 165.96 
L 52.525419 165.613448 
L 53.660497 165.266895 
L 54.795575 164.920343 
L 55.930653 164.573791 
L 57.065731 164.227238 
L 58.200809 163.880686 
L 59.335887 163.534134 
L 60.470965 158.634012 
L 61.606043 153.168389 
L 62.741121 147.702766 
L 63.876199 142.237143 
L 65.011277 136.77152 
L 66.146355 128.436193 
L 67.281434 118.637892 
L 68.416512 108.839591 
L 69.55159 99.04129 
L 70.686668 89.242989 
L 71.821746 80.629629 
L 72.956824 73.186133 
L 74.091902 65.742636 
L 75.22698 58.299139 
L 76.362058 50.855642 
L 77.497136 44.07247 
L 78.632214 38.544177 
L 79.767292 33.015884 
L 80.90237 29.470191 
L 82.037448 25.939896 
L 83.172526 22.4096 
L 84.307604 18.879304 
L 85.442682 15.349008 
L 86.57776 14.953229 
L 87.712838 15.185153 
L 88.847916 15.417077 
L 89.982994 15.649002 
L 91.118072 15.880926 
L 92.25315 16.383724 
L 93.388229 17.0171 
L 94.523307 17.650477 
L 95.658385 18.283853 
L 96.793463 18.91723 
L 97.928541 19.065173 
L 99.063619 18.757052 
L 100.198697 18.448931 
L 101.333775 18.14081 
L 102.468853 17.832689 
L 103.603931 18.628822 
L 104.739009 21.406143 
L 105.874087 24.183463 
L 107.009165 26.960784 
L 108.144243 29.738105 
L 109.279321 32.127861 
L 110.414399 32.962212 
L 111.549477 33.796562 
L 112.684555 34.630913 
L 113.819633 35.465263 
L 114.954711 36.275368 
L 116.089789 36.529185 
L 117.224867 36.783002 
L 118.359945 37.036819 
L 119.495024 37.778818 
L 120.630102 38.676043 
L 121.76518 39.573268 
L 122.900258 40.470494 
L 124.035336 41.367719 
L 125.170414 41.769725 
L 126.305492 41.864994 
L 127.44057 41.960263 
L 128.575648 42.055532 
L 129.710726 42.1508 
L 130.845804 42.190128 
L 131.980882 42.203357 
L 133.11596 42.216587 
L 134.251038 42.229816 
L 135.386116 42.243045 
L 136.521194 42.256274 
L 137.656272 42.171708 
L 138.79135 42.067521 
L 139.926428 41.963335 
L 141.061506 41.93175 
L 142.196584 41.942135 
L 143.331662 41.952519 
L 144.46674 41.962904 
L 145.601819 41.973289 
L 146.736897 42.225511 
L 147.871975 42.744744 
L 149.007053 43.263977 
L 150.142131 43.783211 
L 151.277209 44.302444 
L 152.412287 44.581119 
L 153.547365 44.341118 
L 154.682443 44.101117 
L 155.817521 43.861116 
L 156.952599 43.621115 
L 158.087677 43.432296 
L 159.222755 43.515373 
L 160.357833 43.598451 
L 161.492911 43.681528 
L 162.627989 43.764605 
L 163.763067 43.847683 
" clip-path="url(#p13057ec332)" style="fill: none; stroke: #ff0000; stroke-width: 1.5; stroke-linecap: square"/>
   </g>
   <g id="line2d_22">
    <path d="M 51.390341 165.96 
L 52.584571 165.595388 
L 53.778801 165.230776 
L 54.97303 164.866164 
L 56.16726 164.501552 
L 57.36149 164.13694 
L 58.55572 163.772328 
L 59.74995 162.105844 
L 60.944179 156.355394 
L 62.138409 150.604943 
L 63.332639 144.854493 
L 64.526869 139.104043 
L 65.721099 132.107126 
L 66.915328 121.798211 
L 68.109558 111.489296 
L 69.303788 101.180381 
L 70.498018 90.871466 
L 71.692248 81.478839 
L 72.886477 73.647443 
L 74.080707 65.816047 
L 75.274937 57.984651 
L 76.469167 50.153255 
L 77.663397 43.262713 
L 78.857626 37.446327 
L 80.051856 32.115442 
L 81.246086 28.401173 
L 82.440316 24.686905 
L 83.634546 20.972637 
L 84.828775 17.258369 
L 86.023005 14.839879 
L 87.217235 15.083889 
L 88.411465 15.3279 
L 89.605695 15.57191 
L 90.799924 15.81592 
L 91.994154 16.239203 
L 93.188384 16.905587 
L 94.382614 17.57197 
L 95.576844 18.238353 
L 96.771073 18.904737 
L 97.965303 19.055194 
L 99.159533 18.731016 
L 100.353763 18.406838 
L 101.547993 18.08266 
L 102.742222 17.758482 
L 103.936452 19.442438 
L 105.130682 22.364492 
L 106.324912 25.286546 
L 107.519142 28.2086 
L 108.713371 31.130654 
L 109.907601 32.589685 
L 111.101831 33.467515 
L 112.296061 34.345346 
L 113.490291 35.223177 
L 114.68452 36.101007 
L 115.87875 36.481994 
L 117.07298 36.749038 
L 118.26721 37.016083 
L 119.46144 37.752271 
L 120.655669 38.696253 
L 121.849899 39.640235 
L 123.044129 40.584217 
L 124.238359 41.528199 
L 125.432589 41.79173 
L 126.626818 41.891964 
L 127.821048 41.992197 
L 129.015278 42.092431 
L 130.209508 42.182712 
L 131.403738 42.196631 
L 132.597967 42.210549 
L 133.792197 42.224468 
L 134.986427 42.238386 
L 136.180657 42.252305 
L 137.374887 42.197536 
L 138.569116 42.08792 
L 139.763346 41.978304 
L 140.957576 41.930799 
L 142.151806 41.941725 
L 143.346036 41.952651 
L 144.540265 41.963577 
L 145.734495 41.974503 
L 146.928725 42.313261 
L 148.122955 42.859553 
L 149.317185 43.405845 
L 150.511414 43.952137 
L 151.705644 44.498429 
L 152.899874 44.478024 
L 154.094104 44.225515 
L 155.288334 43.973007 
L 156.482563 43.720499 
L 157.676793 43.467991 
L 158.871023 43.48963 
L 160.065253 43.577036 
L 161.259483 43.664443 
L 162.453712 43.75185 
L 163.647942 43.839256 
L 164.842172 43.731422 
L 166.036402 43.602758 
L 167.230632 43.474093 
L 168.424861 43.345429 
L 169.619091 43.216765 
" clip-path="url(#p13057ec332)" style="fill: none; stroke: #ff0000; stroke-width: 1.5; stroke-linecap: square"/>
   </g>
   <g id="line2d_23">
    <path d="M 51.390341 165.96 
L 52.643714 165.577331 
L 53.897088 165.194661 
L 55.150461 164.811992 
L 56.403834 164.429323 
L 57.657208 164.046654 
L 58.910581 163.663984 
L 60.163954 160.11233 
L 61.417328 154.077092 
L 62.670701 148.041854 
L 63.924074 142.006616 
L 65.177448 135.971378 
L 66.430821 125.980609 
L 67.684194 115.161151 
L 68.937568 104.341693 
L 70.190941 93.522234 
L 71.444314 83.104709 
L 72.697688 74.885467 
L 73.951061 66.666226 
L 75.204434 58.446985 
L 76.457808 50.227743 
L 77.711181 43.029982 
L 78.964555 36.925543 
L 80.217928 31.598929 
L 81.471301 27.700714 
L 82.724675 23.802498 
L 83.978048 19.904283 
L 85.231421 16.006068 
L 86.484795 14.934234 
L 87.738168 15.190329 
L 88.991541 15.446423 
L 90.244915 15.702518 
L 91.498288 15.962508 
L 92.751661 16.661894 
L 94.005035 17.36128 
L 95.258408 18.060665 
L 96.511781 18.760051 
L 97.765155 19.109525 
L 99.018528 18.769292 
L 100.271901 18.429059 
L 101.525275 18.088826 
L 102.778648 17.748594 
L 104.032021 19.676278 
L 105.285395 22.743045 
L 106.538768 25.809812 
L 107.792141 28.876579 
L 109.045515 31.943346 
L 110.298888 32.877304 
L 111.552262 33.798609 
L 112.805635 34.719914 
L 114.059008 35.641218 
L 115.312382 36.355347 
L 116.565755 36.635617 
L 117.819128 36.915886 
L 119.072502 37.444834 
L 120.325875 38.435566 
L 121.579248 39.426299 
L 122.832622 40.417031 
L 124.085995 41.407763 
L 125.339368 41.783906 
L 126.592742 41.889103 
L 127.846115 41.994301 
L 129.099488 42.099498 
L 130.352862 42.184383 
L 131.606235 42.198991 
L 132.859608 42.213599 
L 134.112982 42.228207 
L 135.366355 42.242814 
L 136.619728 42.257422 
L 137.873102 42.151805 
L 139.126475 42.036761 
L 140.379848 41.925514 
L 141.633222 41.936981 
L 142.886595 41.948448 
L 144.139968 41.959914 
L 145.393342 41.971381 
L 146.646715 42.184258 
L 147.900089 42.757605 
L 149.153462 43.330951 
L 150.406835 43.904298 
L 151.660209 44.477644 
L 152.913582 44.475125 
L 154.166955 44.210112 
L 155.420329 43.945098 
L 156.673702 43.680085 
L 157.927075 43.420541 
L 159.180449 43.512277 
L 160.433822 43.604012 
L 161.687195 43.695748 
L 162.940569 43.787483 
L 164.193942 43.801261 
L 165.447315 43.666225 
L 166.700689 43.531188 
L 167.954062 43.396152 
L 169.207435 43.261116 
L 170.460809 43.084141 
L 171.714182 42.886655 
L 172.967555 42.689169 
L 174.220929 42.491683 
L 175.474302 42.294197 
" clip-path="url(#p13057ec332)" style="fill: none; stroke: #ff0000; stroke-width: 1.5; stroke-linecap: square"/>
   </g>
   <g id="line2d_24">
    <path d="M 51.390341 165.96 
L 52.702866 165.559271 
L 54.015391 165.158542 
L 55.327916 164.757813 
L 56.640441 164.357084 
L 57.952966 163.956355 
L 59.265492 163.555626 
L 60.578017 158.118539 
L 61.890542 151.798473 
L 63.203067 145.478408 
L 64.515592 139.158343 
L 65.828117 131.183313 
L 67.140642 119.853241 
L 68.453167 108.523169 
L 69.765692 97.193097 
L 71.078217 85.863025 
L 72.390743 76.898321 
L 73.703268 68.29118 
L 75.015793 59.68404 
L 76.328318 51.076899 
L 77.640843 43.372558 
L 78.953368 36.980025 
L 80.265893 31.449748 
L 81.578418 27.36756 
L 82.890943 23.285373 
L 84.203468 19.203185 
L 85.515994 15.120997 
L 86.828519 15.004465 
L 88.141044 15.272646 
L 89.453569 15.540827 
L 90.766094 15.809008 
L 92.078619 16.286335 
L 93.391144 17.018727 
L 94.703669 17.75112 
L 96.016194 18.483512 
L 97.32872 19.215905 
L 98.641245 18.871707 
L 99.95377 18.515417 
L 101.266295 18.159128 
L 102.57882 17.802838 
L 103.891345 19.33207 
L 105.20387 22.54357 
L 106.516395 25.75507 
L 107.82892 28.96657 
L 109.141445 32.026514 
L 110.453971 32.991299 
L 111.766496 33.956084 
L 113.079021 34.920869 
L 114.391546 35.885654 
L 115.704071 36.442934 
L 117.016596 36.73643 
L 118.329121 37.029927 
L 119.641646 37.894716 
L 120.954171 38.932205 
L 122.266696 39.969694 
L 123.579222 41.007183 
L 124.891747 41.746336 
L 126.204272 41.856499 
L 127.516797 41.966661 
L 128.829322 42.076823 
L 130.141847 42.181924 
L 131.454372 42.197221 
L 132.766897 42.212518 
L 134.079422 42.227815 
L 135.391948 42.243113 
L 136.704473 42.25841 
L 138.016998 42.138598 
L 139.329523 42.018123 
L 140.642048 41.927913 
L 141.954573 41.939921 
L 143.267098 41.951929 
L 144.579623 41.963937 
L 145.892148 41.975945 
L 147.204673 42.439492 
L 148.517199 43.039897 
L 149.829724 43.640302 
L 151.142249 44.240707 
L 152.454774 44.572136 
L 153.767299 44.294615 
L 155.079824 44.017094 
L 156.392349 43.739574 
L 157.704874 43.462053 
L 159.017399 43.500343 
L 160.329924 43.596408 
L 161.64245 43.692473 
L 162.954975 43.788538 
L 164.2675 43.793336 
L 165.580025 43.651927 
L 166.89255 43.510518 
L 168.205075 43.369109 
L 169.5176 43.227699 
L 170.830125 43.02595 
L 172.14265 42.819144 
L 173.455176 42.612338 
L 174.767701 42.405531 
L 176.080226 42.363173 
L 177.392751 42.512586 
L 178.705276 42.662 
L 180.017801 42.811413 
L 181.330326 42.960827 
" clip-path="url(#p13057ec332)" style="fill: none; stroke: #ff0000; stroke-width: 1.5; stroke-linecap: square"/>
   </g>
   <g id="line2d_25">
    <path d="M 51.390341 165.96 
L 52.762018 165.541211 
L 54.133695 165.122423 
L 55.505371 164.703634 
L 56.877048 164.284845 
L 58.248725 163.866057 
L 59.620402 162.72964 
L 60.992079 156.124748 
L 62.363756 149.519855 
L 63.735433 142.914963 
L 65.10711 136.31007 
L 66.478786 125.566559 
L 67.850463 113.725873 
L 69.22214 101.885187 
L 70.593817 90.044501 
L 71.965494 79.686973 
L 73.337171 70.691933 
L 74.708848 61.696893 
L 76.080524 52.701853 
L 77.452201 44.29132 
L 78.823878 37.610694 
L 80.195555 31.668512 
L 81.567232 27.402352 
L 82.938909 23.136192 
L 84.310586 18.870031 
L 85.682262 14.770257 
L 87.053939 15.050524 
L 88.425616 15.330791 
L 89.797293 15.611058 
L 91.16897 15.891325 
L 92.540647 16.544147 
L 93.912324 17.309547 
L 95.284 18.074946 
L 96.655677 18.840345 
L 98.027354 19.03835 
L 99.399031 18.666003 
L 100.770708 18.293656 
L 102.142385 17.92131 
L 103.514062 18.408929 
L 104.885738 21.765162 
L 106.257415 25.121395 
L 107.629092 28.477629 
L 109.000769 31.833862 
L 110.372446 32.931374 
L 111.744123 33.939638 
L 113.1158 34.947903 
L 114.487477 35.956168 
L 115.859153 36.477612 
L 117.23083 36.784336 
L 118.602507 37.091059 
L 119.974184 38.157571 
L 121.345861 39.241817 
L 122.717538 40.326062 
L 124.089215 41.410308 
L 125.460891 41.794106 
L 126.832568 41.909232 
L 128.204245 42.024359 
L 129.575922 42.139486 
L 130.947599 42.191315 
L 132.319276 42.207301 
L 133.690953 42.223288 
L 135.062629 42.239275 
L 136.434306 42.255261 
L 137.805983 42.157966 
L 139.17766 42.032063 
L 140.549337 41.927064 
L 141.921014 41.939614 
L 143.292691 41.952163 
L 144.664367 41.964712 
L 146.036044 41.977261 
L 147.407721 42.532375 
L 148.779398 43.159838 
L 150.151075 43.787302 
L 151.522752 44.414766 
L 152.894429 44.479175 
L 154.266105 44.189147 
L 155.637782 43.89912 
L 157.009459 43.609092 
L 158.381136 43.453774 
L 159.752813 43.554169 
L 161.12449 43.654563 
L 162.496167 43.754957 
L 163.867844 43.836394 
L 165.23952 43.688612 
L 166.611197 43.54083 
L 167.982874 43.393048 
L 169.354551 43.245266 
L 170.726228 43.042321 
L 172.097905 42.826194 
L 173.469582 42.610068 
L 174.841258 42.393941 
L 176.212935 42.37828 
L 177.584612 42.534427 
L 178.956289 42.690574 
L 180.327966 42.846721 
L 181.699643 42.992733 
L 183.07132 43.111238 
L 184.442996 43.229742 
L 185.814673 43.348247 
L 187.18635 43.466751 
" clip-path="url(#p13057ec332)" style="fill: none; stroke: #ff0000; stroke-width: 1.5; stroke-linecap: square"/>
   </g>
   <g id="line2d_26">
    <path d="M 51.390341 165.96 
L 52.821161 165.523154 
L 54.251982 165.086308 
L 55.682802 164.649462 
L 57.113623 164.212616 
L 58.544443 163.775771 
L 59.975263 161.020914 
L 61.406084 154.131233 
L 62.836904 147.241553 
L 64.267725 140.351873 
L 65.698545 132.301815 
L 67.129365 119.950585 
L 68.560186 107.599356 
L 69.991006 95.248127 
L 71.421827 83.252177 
L 72.852647 73.869292 
L 74.283467 64.486407 
L 75.714288 55.103521 
L 77.145108 45.786989 
L 78.575929 38.81831 
L 80.006749 32.255733 
L 81.437569 27.805625 
L 82.86839 23.355518 
L 84.29921 18.905411 
L 85.730031 14.780017 
L 87.160851 15.072369 
L 88.591671 15.36472 
L 90.022492 15.657072 
L 91.453312 15.949423 
L 92.884133 16.735813 
L 94.314953 17.534215 
L 95.745773 18.332617 
L 97.176594 19.131018 
L 98.607414 18.880891 
L 100.038235 18.492489 
L 101.469055 18.104088 
L 102.899876 17.715686 
L 104.330696 20.407078 
L 105.761516 23.908024 
L 107.192337 27.408971 
L 108.623157 30.909917 
L 110.053978 32.69728 
L 111.484798 33.749019 
L 112.915618 34.800758 
L 114.346439 35.852497 
L 115.777259 36.4593 
L 117.20808 36.779248 
L 118.6389 37.102093 
L 120.06972 38.233088 
L 121.500541 39.364084 
L 122.931361 40.49508 
L 124.362182 41.626075 
L 125.793002 41.82198 
L 127.223822 41.942071 
L 128.654643 42.062162 
L 130.085463 42.181267 
L 131.516284 42.197943 
L 132.947104 42.214619 
L 134.377924 42.231294 
L 135.808745 42.24797 
L 137.239565 42.209957 
L 138.670386 42.078624 
L 140.101206 41.947292 
L 141.532026 41.936055 
L 142.962847 41.949145 
L 144.393667 41.962236 
L 145.824488 41.975326 
L 147.255308 42.462655 
L 148.686128 43.117173 
L 150.116949 43.771691 
L 151.547769 44.42621 
L 152.97859 44.46138 
L 154.40941 44.158847 
L 155.840231 43.856314 
L 157.271051 43.553781 
L 158.701871 43.477249 
L 160.132692 43.581972 
L 161.563512 43.686695 
L 162.994333 43.791418 
L 164.425153 43.776351 
L 165.855973 43.622197 
L 167.286794 43.468043 
L 168.717614 43.313888 
L 170.148435 43.13336 
L 171.579255 42.907914 
L 173.010075 42.682469 
L 174.440896 42.457024 
L 175.871716 42.339437 
L 177.302537 42.502317 
L 178.733357 42.665197 
L 180.164177 42.828076 
L 181.594998 42.983693 
L 183.025818 43.107307 
L 184.456639 43.230921 
L 185.887459 43.354535 
L 187.318279 43.461253 
L 188.7491 43.401619 
L 190.17992 43.341985 
L 191.610741 43.282351 
L 193.041561 43.222717 
" clip-path="url(#p13057ec332)" style="fill: none; stroke: #ff0000; stroke-width: 1.5; stroke-linecap: square"/>
   </g>
   <g id="line2d_27">
    <path d="M 51.390341 165.96 
L 52.880313 165.505094 
L 54.370285 165.050189 
L 55.860257 164.595283 
L 57.35023 164.140378 
L 58.840202 163.685472 
L 60.330174 159.31195 
L 61.820146 152.137442 
L 63.310118 144.962935 
L 64.80009 137.788427 
L 66.290063 127.195675 
L 67.780035 114.333831 
L 69.270007 101.471988 
L 70.759979 88.610145 
L 72.249951 77.821588 
L 73.739923 68.050803 
L 75.229896 58.280019 
L 76.719868 48.509234 
L 78.20984 40.601311 
L 79.699812 33.344539 
L 81.189784 28.576282 
L 82.679756 23.942202 
L 84.169729 19.308122 
L 85.659701 14.765647 
L 87.149673 15.070085 
L 88.639645 15.374522 
L 90.129617 15.67896 
L 91.619589 16.030195 
L 93.109561 16.861603 
L 94.599534 17.693012 
L 96.089506 18.52442 
L 97.579478 19.159928 
L 99.06945 18.755469 
L 100.559422 18.351011 
L 102.049394 17.946552 
L 103.539367 18.470845 
L 105.029339 22.116525 
L 106.519311 25.762204 
L 108.009283 29.407884 
L 109.499255 32.289526 
L 110.989227 33.384745 
L 112.4792 34.479964 
L 113.969172 35.575183 
L 115.459144 36.388165 
L 116.949116 36.721341 
L 118.439088 37.054517 
L 119.92906 38.121903 
L 121.419033 39.299656 
L 122.909005 40.477408 
L 124.398977 41.65516 
L 125.888949 41.830033 
L 127.378921 41.955089 
L 128.868893 42.080144 
L 130.358866 42.184453 
L 131.848838 42.201818 
L 133.33881 42.219184 
L 134.828782 42.236549 
L 136.318754 42.253914 
L 137.808726 42.157714 
L 139.298699 42.020953 
L 140.788671 41.929254 
L 142.278643 41.942885 
L 143.768615 41.956517 
L 145.258587 41.970149 
L 146.748559 42.230846 
L 148.238532 42.912423 
L 149.728504 43.594 
L 151.218476 44.275577 
L 152.708448 44.518499 
L 154.19842 44.203459 
L 155.688392 43.888419 
L 157.178365 43.573379 
L 158.668337 43.474795 
L 160.158309 43.583847 
L 161.648281 43.6929 
L 163.138253 43.801952 
L 164.628225 43.754472 
L 166.118197 43.593945 
L 167.60817 43.433418 
L 169.098142 43.272891 
L 170.588114 43.064082 
L 172.078086 42.829317 
L 173.568058 42.594551 
L 175.05803 42.359786 
L 176.548003 42.416423 
L 178.037975 42.586037 
L 179.527947 42.75565 
L 181.017919 42.925263 
L 182.507891 43.062561 
L 183.997863 43.191286 
L 185.487836 43.32001 
L 186.977808 43.448734 
L 188.46778 43.413344 
L 189.957752 43.351244 
L 191.447724 43.289145 
L 192.937696 43.227046 
L 194.427669 43.035342 
L 195.917641 42.833926 
L 197.407613 42.63251 
L 198.897585 42.431094 
" clip-path="url(#p13057ec332)" style="fill: none; stroke: #ff0000; stroke-width: 1.5; stroke-linecap: square"/>
   </g>
   <g id="line2d_28">
    <path d="M 51.390341 165.96 
L 52.927531 165.490678 
L 54.464721 165.021356 
L 56.001911 164.552035 
L 57.539101 164.082713 
L 59.076291 163.613391 
L 60.613481 157.947769 
L 62.150671 150.545898 
L 63.687862 143.144027 
L 65.225052 135.742156 
L 66.762242 123.119696 
L 68.299432 109.850255 
L 69.836622 96.580814 
L 71.373812 83.567042 
L 72.911002 73.486617 
L 74.448192 63.406192 
L 75.985382 53.325767 
L 77.522572 43.948585 
L 79.059762 36.461842 
L 80.596952 30.420094 
L 82.134143 25.639158 
L 83.671333 20.858222 
L 85.208523 16.077286 
L 86.745713 14.987546 
L 88.282903 15.301631 
L 89.820093 15.615717 
L 91.357283 15.929802 
L 92.894473 16.741584 
L 94.431663 17.59934 
L 95.968853 18.457096 
L 97.506043 19.179862 
L 99.043233 18.762586 
L 100.580424 18.34531 
L 102.117614 17.928034 
L 103.654804 18.753298 
L 105.191994 22.514511 
L 106.729184 26.275724 
L 108.266374 30.036936 
L 109.803564 32.513211 
L 111.340754 33.643138 
L 112.877944 34.773065 
L 114.415134 35.902992 
L 115.952324 36.498446 
L 117.489514 36.84218 
L 119.026705 37.408634 
L 120.563895 38.62371 
L 122.101085 39.838785 
L 123.638275 41.053861 
L 125.175465 41.770149 
L 126.712655 41.899168 
L 128.249845 42.028187 
L 129.787035 42.157205 
L 131.324225 42.195704 
L 132.861415 42.21362 
L 134.398605 42.231535 
L 135.935795 42.249451 
L 137.472986 42.188531 
L 139.010176 42.047436 
L 140.547366 41.927046 
L 142.084556 41.94111 
L 143.621746 41.955173 
L 145.158936 41.969237 
L 146.696126 42.206861 
L 148.233316 42.910037 
L 149.770506 43.613214 
L 151.307696 44.31639 
L 152.844886 44.48965 
L 154.382076 44.164626 
L 155.919267 43.839603 
L 157.456457 43.514579 
L 158.993647 43.498605 
L 160.530837 43.611113 
L 162.068027 43.723621 
L 163.605217 43.836129 
L 165.142407 43.699075 
L 166.679597 43.533461 
L 168.216787 43.367847 
L 169.753977 43.195512 
L 171.291167 42.953307 
L 172.828357 42.711101 
L 174.365548 42.468896 
L 175.902738 42.342968 
L 177.439928 42.517957 
L 178.977118 42.692945 
L 180.514308 42.867934 
L 182.051498 43.023131 
L 183.588688 43.155935 
L 185.125878 43.288739 
L 186.663068 43.421543 
L 188.200258 43.424493 
L 189.737448 43.360426 
L 191.274638 43.296359 
L 192.811829 43.232292 
L 194.349019 43.045974 
L 195.886209 42.838175 
L 197.423399 42.630376 
L 198.960589 42.424436 
L 200.497779 42.261982 
L 202.034969 42.099528 
L 203.572159 41.937074 
" clip-path="url(#p13057ec332)" style="fill: none; stroke: #ff0000; stroke-width: 1.5; stroke-linecap: square"/>
   </g>
   <g id="matplotlib.axis_1">
    <g id="xtick_1">
     <g id="line2d_29">
      <defs>
       <path id="mc5f5552b1e" d="M 0 0 
L 0 3.5 
" style="stroke: #000000; stroke-width: 0.8"/>
      </defs>
      <g>
       <use xlink:href="#mc5f5552b1e" x="51.390341" y="173.52" style="stroke: #000000; stroke-width: 0.8"/>
      </g>
     </g>
     <g id="text_1">
      <!-- 0 -->
      <g transform="translate(48.209091 188.118438) scale(0.1 -0.1)">
       <defs>
        <path id="DejaVuSans-30" d="M 2034 4250 
Q 1547 4250 1301 3770 
Q 1056 3291 1056 2328 
Q 1056 1369 1301 889 
Q 1547 409 2034 409 
Q 2525 409 2770 889 
Q 3016 1369 3016 2328 
Q 3016 3291 2770 3770 
Q 2525 4250 2034 4250 
z
M 2034 4750 
Q 2819 4750 3233 4129 
Q 3647 3509 3647 2328 
Q 3647 1150 3233 529 
Q 2819 -91 2034 -91 
Q 1250 -91 836 529 
Q 422 1150 422 2328 
Q 422 3509 836 4129 
Q 1250 4750 2034 4750 
z
" transform="scale(0.015625)"/>
       </defs>
       <use xlink:href="#DejaVuSans-30"/>
      </g>
     </g>
    </g>
    <g id="xtick_2">
     <g id="line2d_30">
      <g>
       <use xlink:href="#mc5f5552b1e" x="109.934319" y="173.52" style="stroke: #000000; stroke-width: 0.8"/>
      </g>
     </g>
     <g id="text_2">
      <!-- 20 -->
      <g transform="translate(103.571819 188.118438) scale(0.1 -0.1)">
       <defs>
        <path id="DejaVuSans-32" d="M 1228 531 
L 3431 531 
L 3431 0 
L 469 0 
L 469 531 
Q 828 903 1448 1529 
Q 2069 2156 2228 2338 
Q 2531 2678 2651 2914 
Q 2772 3150 2772 3378 
Q 2772 3750 2511 3984 
Q 2250 4219 1831 4219 
Q 1534 4219 1204 4116 
Q 875 4013 500 3803 
L 500 4441 
Q 881 4594 1212 4672 
Q 1544 4750 1819 4750 
Q 2544 4750 2975 4387 
Q 3406 4025 3406 3419 
Q 3406 3131 3298 2873 
Q 3191 2616 2906 2266 
Q 2828 2175 2409 1742 
Q 1991 1309 1228 531 
z
" transform="scale(0.015625)"/>
       </defs>
       <use xlink:href="#DejaVuSans-32"/>
       <use xlink:href="#DejaVuSans-30" transform="translate(63.623047 0)"/>
      </g>
     </g>
    </g>
    <g id="xtick_3">
     <g id="line2d_31">
      <g>
       <use xlink:href="#mc5f5552b1e" x="168.478297" y="173.52" style="stroke: #000000; stroke-width: 0.8"/>
      </g>
     </g>
     <g id="text_3">
      <!-- 40 -->
      <g transform="translate(162.115797 188.118438) scale(0.1 -0.1)">
       <defs>
        <path id="DejaVuSans-34" d="M 2419 4116 
L 825 1625 
L 2419 1625 
L 2419 4116 
z
M 2253 4666 
L 3047 4666 
L 3047 1625 
L 3713 1625 
L 3713 1100 
L 3047 1100 
L 3047 0 
L 2419 0 
L 2419 1100 
L 313 1100 
L 313 1709 
L 2253 4666 
z
" transform="scale(0.015625)"/>
       </defs>
       <use xlink:href="#DejaVuSans-34"/>
       <use xlink:href="#DejaVuSans-30" transform="translate(63.623047 0)"/>
      </g>
     </g>
    </g>
    <g id="text_4">
     <!-- Time (h) -->
     <g transform="translate(106.588281 201.796563) scale(0.1 -0.1)">
      <defs>
       <path id="DejaVuSans-54" d="M -19 4666 
L 3928 4666 
L 3928 4134 
L 2272 4134 
L 2272 0 
L 1638 0 
L 1638 4134 
L -19 4134 
L -19 4666 
z
" transform="scale(0.015625)"/>
       <path id="DejaVuSans-69" d="M 603 3500 
L 1178 3500 
L 1178 0 
L 603 0 
L 603 3500 
z
M 603 4863 
L 1178 4863 
L 1178 4134 
L 603 4134 
L 603 4863 
z
" transform="scale(0.015625)"/>
       <path id="DejaVuSans-6d" d="M 3328 2828 
Q 3544 3216 3844 3400 
Q 4144 3584 4550 3584 
Q 5097 3584 5394 3201 
Q 5691 2819 5691 2113 
L 5691 0 
L 5113 0 
L 5113 2094 
Q 5113 2597 4934 2840 
Q 4756 3084 4391 3084 
Q 3944 3084 3684 2787 
Q 3425 2491 3425 1978 
L 3425 0 
L 2847 0 
L 2847 2094 
Q 2847 2600 2669 2842 
Q 2491 3084 2119 3084 
Q 1678 3084 1418 2786 
Q 1159 2488 1159 1978 
L 1159 0 
L 581 0 
L 581 3500 
L 1159 3500 
L 1159 2956 
Q 1356 3278 1631 3431 
Q 1906 3584 2284 3584 
Q 2666 3584 2933 3390 
Q 3200 3197 3328 2828 
z
" transform="scale(0.015625)"/>
       <path id="DejaVuSans-65" d="M 3597 1894 
L 3597 1613 
L 953 1613 
Q 991 1019 1311 708 
Q 1631 397 2203 397 
Q 2534 397 2845 478 
Q 3156 559 3463 722 
L 3463 178 
Q 3153 47 2828 -22 
Q 2503 -91 2169 -91 
Q 1331 -91 842 396 
Q 353 884 353 1716 
Q 353 2575 817 3079 
Q 1281 3584 2069 3584 
Q 2775 3584 3186 3129 
Q 3597 2675 3597 1894 
z
M 3022 2063 
Q 3016 2534 2758 2815 
Q 2500 3097 2075 3097 
Q 1594 3097 1305 2825 
Q 1016 2553 972 2059 
L 3022 2063 
z
" transform="scale(0.015625)"/>
       <path id="DejaVuSans-20" transform="scale(0.015625)"/>
       <path id="DejaVuSans-28" d="M 1984 4856 
Q 1566 4138 1362 3434 
Q 1159 2731 1159 2009 
Q 1159 1288 1364 580 
Q 1569 -128 1984 -844 
L 1484 -844 
Q 1016 -109 783 600 
Q 550 1309 550 2009 
Q 550 2706 781 3412 
Q 1013 4119 1484 4856 
L 1984 4856 
z
" transform="scale(0.015625)"/>
       <path id="DejaVuSans-68" d="M 3513 2113 
L 3513 0 
L 2938 0 
L 2938 2094 
Q 2938 2591 2744 2837 
Q 2550 3084 2163 3084 
Q 1697 3084 1428 2787 
Q 1159 2491 1159 1978 
L 1159 0 
L 581 0 
L 581 4863 
L 1159 4863 
L 1159 2956 
Q 1366 3272 1645 3428 
Q 1925 3584 2291 3584 
Q 2894 3584 3203 3211 
Q 3513 2838 3513 2113 
z
" transform="scale(0.015625)"/>
       <path id="DejaVuSans-29" d="M 513 4856 
L 1013 4856 
Q 1481 4119 1714 3412 
Q 1947 2706 1947 2009 
Q 1947 1309 1714 600 
Q 1481 -109 1013 -844 
L 513 -844 
Q 928 -128 1133 580 
Q 1338 1288 1338 2009 
Q 1338 2731 1133 3434 
Q 928 4138 513 4856 
z
" transform="scale(0.015625)"/>
      </defs>
      <use xlink:href="#DejaVuSans-54"/>
      <use xlink:href="#DejaVuSans-69" transform="translate(57.958984 0)"/>
      <use xlink:href="#DejaVuSans-6d" transform="translate(85.742188 0)"/>
      <use xlink:href="#DejaVuSans-65" transform="translate(183.154297 0)"/>
      <use xlink:href="#DejaVuSans-20" transform="translate(244.677734 0)"/>
      <use xlink:href="#DejaVuSans-28" transform="translate(276.464844 0)"/>
      <use xlink:href="#DejaVuSans-68" transform="translate(315.478516 0)"/>
      <use xlink:href="#DejaVuSans-29" transform="translate(378.857422 0)"/>
     </g>
    </g>
   </g>
   <g id="matplotlib.axis_2">
    <g id="ytick_1">
     <g id="line2d_32">
      <defs>
       <path id="mfc1c27f2bf" d="M 0 0 
L -3.5 0 
" style="stroke: #000000; stroke-width: 0.8"/>
      </defs>
      <g>
       <use xlink:href="#mfc1c27f2bf" x="43.78125" y="167.745616" style="stroke: #000000; stroke-width: 0.8"/>
      </g>
     </g>
     <g id="text_5">
      <!-- 0.0 -->
      <g transform="translate(20.878125 171.544835) scale(0.1 -0.1)">
       <defs>
        <path id="DejaVuSans-2e" d="M 684 794 
L 1344 794 
L 1344 0 
L 684 0 
L 684 794 
z
" transform="scale(0.015625)"/>
       </defs>
       <use xlink:href="#DejaVuSans-30"/>
       <use xlink:href="#DejaVuSans-2e" transform="translate(63.623047 0)"/>
       <use xlink:href="#DejaVuSans-30" transform="translate(95.410156 0)"/>
      </g>
     </g>
    </g>
    <g id="ytick_2">
     <g id="line2d_33">
      <g>
       <use xlink:href="#mfc1c27f2bf" x="43.78125" y="132.033298" style="stroke: #000000; stroke-width: 0.8"/>
      </g>
     </g>
     <g id="text_6">
      <!-- 0.2 -->
      <g transform="translate(20.878125 135.832517) scale(0.1 -0.1)">
       <use xlink:href="#DejaVuSans-30"/>
       <use xlink:href="#DejaVuSans-2e" transform="translate(63.623047 0)"/>
       <use xlink:href="#DejaVuSans-32" transform="translate(95.410156 0)"/>
      </g>
     </g>
    </g>
    <g id="ytick_3">
     <g id="line2d_34">
      <g>
       <use xlink:href="#mfc1c27f2bf" x="43.78125" y="96.320981" style="stroke: #000000; stroke-width: 0.8"/>
      </g>
     </g>
     <g id="text_7">
      <!-- 0.4 -->
      <g transform="translate(20.878125 100.1202) scale(0.1 -0.1)">
       <use xlink:href="#DejaVuSans-30"/>
       <use xlink:href="#DejaVuSans-2e" transform="translate(63.623047 0)"/>
       <use xlink:href="#DejaVuSans-34" transform="translate(95.410156 0)"/>
      </g>
     </g>
    </g>
    <g id="ytick_4">
     <g id="line2d_35">
      <g>
       <use xlink:href="#mfc1c27f2bf" x="43.78125" y="60.608664" style="stroke: #000000; stroke-width: 0.8"/>
      </g>
     </g>
     <g id="text_8">
      <!-- 0.6 -->
      <g transform="translate(20.878125 64.407882) scale(0.1 -0.1)">
       <defs>
        <path id="DejaVuSans-36" d="M 2113 2584 
Q 1688 2584 1439 2293 
Q 1191 2003 1191 1497 
Q 1191 994 1439 701 
Q 1688 409 2113 409 
Q 2538 409 2786 701 
Q 3034 994 3034 1497 
Q 3034 2003 2786 2293 
Q 2538 2584 2113 2584 
z
M 3366 4563 
L 3366 3988 
Q 3128 4100 2886 4159 
Q 2644 4219 2406 4219 
Q 1781 4219 1451 3797 
Q 1122 3375 1075 2522 
Q 1259 2794 1537 2939 
Q 1816 3084 2150 3084 
Q 2853 3084 3261 2657 
Q 3669 2231 3669 1497 
Q 3669 778 3244 343 
Q 2819 -91 2113 -91 
Q 1303 -91 875 529 
Q 447 1150 447 2328 
Q 447 3434 972 4092 
Q 1497 4750 2381 4750 
Q 2619 4750 2861 4703 
Q 3103 4656 3366 4563 
z
" transform="scale(0.015625)"/>
       </defs>
       <use xlink:href="#DejaVuSans-30"/>
       <use xlink:href="#DejaVuSans-2e" transform="translate(63.623047 0)"/>
       <use xlink:href="#DejaVuSans-36" transform="translate(95.410156 0)"/>
      </g>
     </g>
    </g>
    <g id="ytick_5">
     <g id="line2d_36">
      <g>
       <use xlink:href="#mfc1c27f2bf" x="43.78125" y="24.896346" style="stroke: #000000; stroke-width: 0.8"/>
      </g>
     </g>
     <g id="text_9">
      <!-- 0.8 -->
      <g transform="translate(20.878125 28.695565) scale(0.1 -0.1)">
       <defs>
        <path id="DejaVuSans-38" d="M 2034 2216 
Q 1584 2216 1326 1975 
Q 1069 1734 1069 1313 
Q 1069 891 1326 650 
Q 1584 409 2034 409 
Q 2484 409 2743 651 
Q 3003 894 3003 1313 
Q 3003 1734 2745 1975 
Q 2488 2216 2034 2216 
z
M 1403 2484 
Q 997 2584 770 2862 
Q 544 3141 544 3541 
Q 544 4100 942 4425 
Q 1341 4750 2034 4750 
Q 2731 4750 3128 4425 
Q 3525 4100 3525 3541 
Q 3525 3141 3298 2862 
Q 3072 2584 2669 2484 
Q 3125 2378 3379 2068 
Q 3634 1759 3634 1313 
Q 3634 634 3220 271 
Q 2806 -91 2034 -91 
Q 1263 -91 848 271 
Q 434 634 434 1313 
Q 434 1759 690 2068 
Q 947 2378 1403 2484 
z
M 1172 3481 
Q 1172 3119 1398 2916 
Q 1625 2713 2034 2713 
Q 2441 2713 2670 2916 
Q 2900 3119 2900 3481 
Q 2900 3844 2670 4047 
Q 2441 4250 2034 4250 
Q 1625 4250 1398 4047 
Q 1172 3844 1172 3481 
z
" transform="scale(0.015625)"/>
       </defs>
       <use xlink:href="#DejaVuSans-30"/>
       <use xlink:href="#DejaVuSans-2e" transform="translate(63.623047 0)"/>
       <use xlink:href="#DejaVuSans-38" transform="translate(95.410156 0)"/>
      </g>
     </g>
    </g>
    <g id="text_10">
     <!-- Absolute Abundance DL -->
     <g transform="translate(14.798438 150.192031) rotate(-90) scale(0.1 -0.1)">
      <defs>
       <path id="DejaVuSans-41" d="M 2188 4044 
L 1331 1722 
L 3047 1722 
L 2188 4044 
z
M 1831 4666 
L 2547 4666 
L 4325 0 
L 3669 0 
L 3244 1197 
L 1141 1197 
L 716 0 
L 50 0 
L 1831 4666 
z
" transform="scale(0.015625)"/>
       <path id="DejaVuSans-62" d="M 3116 1747 
Q 3116 2381 2855 2742 
Q 2594 3103 2138 3103 
Q 1681 3103 1420 2742 
Q 1159 2381 1159 1747 
Q 1159 1113 1420 752 
Q 1681 391 2138 391 
Q 2594 391 2855 752 
Q 3116 1113 3116 1747 
z
M 1159 2969 
Q 1341 3281 1617 3432 
Q 1894 3584 2278 3584 
Q 2916 3584 3314 3078 
Q 3713 2572 3713 1747 
Q 3713 922 3314 415 
Q 2916 -91 2278 -91 
Q 1894 -91 1617 61 
Q 1341 213 1159 525 
L 1159 0 
L 581 0 
L 581 4863 
L 1159 4863 
L 1159 2969 
z
" transform="scale(0.015625)"/>
       <path id="DejaVuSans-73" d="M 2834 3397 
L 2834 2853 
Q 2591 2978 2328 3040 
Q 2066 3103 1784 3103 
Q 1356 3103 1142 2972 
Q 928 2841 928 2578 
Q 928 2378 1081 2264 
Q 1234 2150 1697 2047 
L 1894 2003 
Q 2506 1872 2764 1633 
Q 3022 1394 3022 966 
Q 3022 478 2636 193 
Q 2250 -91 1575 -91 
Q 1294 -91 989 -36 
Q 684 19 347 128 
L 347 722 
Q 666 556 975 473 
Q 1284 391 1588 391 
Q 1994 391 2212 530 
Q 2431 669 2431 922 
Q 2431 1156 2273 1281 
Q 2116 1406 1581 1522 
L 1381 1569 
Q 847 1681 609 1914 
Q 372 2147 372 2553 
Q 372 3047 722 3315 
Q 1072 3584 1716 3584 
Q 2034 3584 2315 3537 
Q 2597 3491 2834 3397 
z
" transform="scale(0.015625)"/>
       <path id="DejaVuSans-6f" d="M 1959 3097 
Q 1497 3097 1228 2736 
Q 959 2375 959 1747 
Q 959 1119 1226 758 
Q 1494 397 1959 397 
Q 2419 397 2687 759 
Q 2956 1122 2956 1747 
Q 2956 2369 2687 2733 
Q 2419 3097 1959 3097 
z
M 1959 3584 
Q 2709 3584 3137 3096 
Q 3566 2609 3566 1747 
Q 3566 888 3137 398 
Q 2709 -91 1959 -91 
Q 1206 -91 779 398 
Q 353 888 353 1747 
Q 353 2609 779 3096 
Q 1206 3584 1959 3584 
z
" transform="scale(0.015625)"/>
       <path id="DejaVuSans-6c" d="M 603 4863 
L 1178 4863 
L 1178 0 
L 603 0 
L 603 4863 
z
" transform="scale(0.015625)"/>
       <path id="DejaVuSans-75" d="M 544 1381 
L 544 3500 
L 1119 3500 
L 1119 1403 
Q 1119 906 1312 657 
Q 1506 409 1894 409 
Q 2359 409 2629 706 
Q 2900 1003 2900 1516 
L 2900 3500 
L 3475 3500 
L 3475 0 
L 2900 0 
L 2900 538 
Q 2691 219 2414 64 
Q 2138 -91 1772 -91 
Q 1169 -91 856 284 
Q 544 659 544 1381 
z
M 1991 3584 
L 1991 3584 
z
" transform="scale(0.015625)"/>
       <path id="DejaVuSans-74" d="M 1172 4494 
L 1172 3500 
L 2356 3500 
L 2356 3053 
L 1172 3053 
L 1172 1153 
Q 1172 725 1289 603 
Q 1406 481 1766 481 
L 2356 481 
L 2356 0 
L 1766 0 
Q 1100 0 847 248 
Q 594 497 594 1153 
L 594 3053 
L 172 3053 
L 172 3500 
L 594 3500 
L 594 4494 
L 1172 4494 
z
" transform="scale(0.015625)"/>
       <path id="DejaVuSans-6e" d="M 3513 2113 
L 3513 0 
L 2938 0 
L 2938 2094 
Q 2938 2591 2744 2837 
Q 2550 3084 2163 3084 
Q 1697 3084 1428 2787 
Q 1159 2491 1159 1978 
L 1159 0 
L 581 0 
L 581 3500 
L 1159 3500 
L 1159 2956 
Q 1366 3272 1645 3428 
Q 1925 3584 2291 3584 
Q 2894 3584 3203 3211 
Q 3513 2838 3513 2113 
z
" transform="scale(0.015625)"/>
       <path id="DejaVuSans-64" d="M 2906 2969 
L 2906 4863 
L 3481 4863 
L 3481 0 
L 2906 0 
L 2906 525 
Q 2725 213 2448 61 
Q 2172 -91 1784 -91 
Q 1150 -91 751 415 
Q 353 922 353 1747 
Q 353 2572 751 3078 
Q 1150 3584 1784 3584 
Q 2172 3584 2448 3432 
Q 2725 3281 2906 2969 
z
M 947 1747 
Q 947 1113 1208 752 
Q 1469 391 1925 391 
Q 2381 391 2643 752 
Q 2906 1113 2906 1747 
Q 2906 2381 2643 2742 
Q 2381 3103 1925 3103 
Q 1469 3103 1208 2742 
Q 947 2381 947 1747 
z
" transform="scale(0.015625)"/>
       <path id="DejaVuSans-61" d="M 2194 1759 
Q 1497 1759 1228 1600 
Q 959 1441 959 1056 
Q 959 750 1161 570 
Q 1363 391 1709 391 
Q 2188 391 2477 730 
Q 2766 1069 2766 1631 
L 2766 1759 
L 2194 1759 
z
M 3341 1997 
L 3341 0 
L 2766 0 
L 2766 531 
Q 2569 213 2275 61 
Q 1981 -91 1556 -91 
Q 1019 -91 701 211 
Q 384 513 384 1019 
Q 384 1609 779 1909 
Q 1175 2209 1959 2209 
L 2766 2209 
L 2766 2266 
Q 2766 2663 2505 2880 
Q 2244 3097 1772 3097 
Q 1472 3097 1187 3025 
Q 903 2953 641 2809 
L 641 3341 
Q 956 3463 1253 3523 
Q 1550 3584 1831 3584 
Q 2591 3584 2966 3190 
Q 3341 2797 3341 1997 
z
" transform="scale(0.015625)"/>
       <path id="DejaVuSans-63" d="M 3122 3366 
L 3122 2828 
Q 2878 2963 2633 3030 
Q 2388 3097 2138 3097 
Q 1578 3097 1268 2742 
Q 959 2388 959 1747 
Q 959 1106 1268 751 
Q 1578 397 2138 397 
Q 2388 397 2633 464 
Q 2878 531 3122 666 
L 3122 134 
Q 2881 22 2623 -34 
Q 2366 -91 2075 -91 
Q 1284 -91 818 406 
Q 353 903 353 1747 
Q 353 2603 823 3093 
Q 1294 3584 2113 3584 
Q 2378 3584 2631 3529 
Q 2884 3475 3122 3366 
z
" transform="scale(0.015625)"/>
       <path id="DejaVuSans-44" d="M 1259 4147 
L 1259 519 
L 2022 519 
Q 2988 519 3436 956 
Q 3884 1394 3884 2338 
Q 3884 3275 3436 3711 
Q 2988 4147 2022 4147 
L 1259 4147 
z
M 628 4666 
L 1925 4666 
Q 3281 4666 3915 4102 
Q 4550 3538 4550 2338 
Q 4550 1131 3912 565 
Q 3275 0 1925 0 
L 628 0 
L 628 4666 
z
" transform="scale(0.015625)"/>
       <path id="DejaVuSans-4c" d="M 628 4666 
L 1259 4666 
L 1259 531 
L 3531 531 
L 3531 0 
L 628 0 
L 628 4666 
z
" transform="scale(0.015625)"/>
      </defs>
      <use xlink:href="#DejaVuSans-41"/>
      <use xlink:href="#DejaVuSans-62" transform="translate(68.408203 0)"/>
      <use xlink:href="#DejaVuSans-73" transform="translate(131.884766 0)"/>
      <use xlink:href="#DejaVuSans-6f" transform="translate(183.984375 0)"/>
      <use xlink:href="#DejaVuSans-6c" transform="translate(245.166016 0)"/>
      <use xlink:href="#DejaVuSans-75" transform="translate(272.949219 0)"/>
      <use xlink:href="#DejaVuSans-74" transform="translate(336.328125 0)"/>
      <use xlink:href="#DejaVuSans-65" transform="translate(375.537109 0)"/>
      <use xlink:href="#DejaVuSans-20" transform="translate(437.060547 0)"/>
      <use xlink:href="#DejaVuSans-41" transform="translate(468.847656 0)"/>
      <use xlink:href="#DejaVuSans-62" transform="translate(537.255859 0)"/>
      <use xlink:href="#DejaVuSans-75" transform="translate(600.732422 0)"/>
      <use xlink:href="#DejaVuSans-6e" transform="translate(664.111328 0)"/>
      <use xlink:href="#DejaVuSans-64" transform="translate(727.490234 0)"/>
      <use xlink:href="#DejaVuSans-61" transform="translate(790.966797 0)"/>
      <use xlink:href="#DejaVuSans-6e" transform="translate(852.246094 0)"/>
      <use xlink:href="#DejaVuSans-63" transform="translate(915.625 0)"/>
      <use xlink:href="#DejaVuSans-65" transform="translate(970.605469 0)"/>
      <use xlink:href="#DejaVuSans-20" transform="translate(1032.128906 0)"/>
      <use xlink:href="#DejaVuSans-44" transform="translate(1063.916016 0)"/>
      <use xlink:href="#DejaVuSans-4c" transform="translate(1140.917969 0)"/>
     </g>
    </g>
   </g>
   <g id="PathCollection_1">
    <defs>
     <path id="ma995f90288" d="M 0 3 
C 0.795609 3 1.55874 2.683901 2.12132 2.12132 
C 2.683901 1.55874 3 0.795609 3 0 
C 3 -0.795609 2.683901 -1.55874 2.12132 -2.12132 
C 1.55874 -2.683901 0.795609 -3 0 -3 
C -0.795609 -3 -1.55874 -2.683901 -2.12132 -2.12132 
C -2.683901 -1.55874 -3 -0.795609 -3 0 
C -3 0.795609 -2.683901 1.55874 -2.12132 2.12132 
C -1.55874 2.683901 -0.795609 3 0 3 
z
" style="stroke: #1f77b4"/>
    </defs>
    <g clip-path="url(#p13057ec332)">
     <use xlink:href="#ma995f90288" x="51.390341" y="165.96" style="fill: #1f77b4; stroke: #1f77b4"/>
     <use xlink:href="#ma995f90288" x="59.461279" y="163.49585" style="fill: #1f77b4; stroke: #1f77b4"/>
     <use xlink:href="#ma995f90288" x="65.394548" y="134.925996" style="fill: #1f77b4; stroke: #1f77b4"/>
     <use xlink:href="#ma995f90288" x="71.250572" y="84.375211" style="fill: #1f77b4; stroke: #1f77b4"/>
     <use xlink:href="#ma995f90288" x="77.105783" y="45.978517" style="fill: #1f77b4; stroke: #1f77b4"/>
     <use xlink:href="#ma995f90288" x="79.776039" y="32.973282" style="fill: #1f77b4; stroke: #1f77b4"/>
     <use xlink:href="#ma995f90288" x="85.632063" y="14.76" style="fill: #1f77b4; stroke: #1f77b4"/>
     <use xlink:href="#ma995f90288" x="91.487274" y="15.956363" style="fill: #1f77b4; stroke: #1f77b4"/>
     <use xlink:href="#ma995f90288" x="97.343298" y="19.22404" style="fill: #1f77b4; stroke: #1f77b4"/>
     <use xlink:href="#ma995f90288" x="103.197696" y="17.634842" style="fill: #1f77b4; stroke: #1f77b4"/>
     <use xlink:href="#ma995f90288" x="109.052907" y="31.961433" style="fill: #1f77b4; stroke: #1f77b4"/>
     <use xlink:href="#ma995f90288" x="114.907305" y="36.264767" style="fill: #1f77b4; stroke: #1f77b4"/>
     <use xlink:href="#ma995f90288" x="118.633791" y="37.098055" style="fill: #1f77b4; stroke: #1f77b4"/>
     <use xlink:href="#ma995f90288" x="124.469488" y="41.710896" style="fill: #1f77b4; stroke: #1f77b4"/>
     <use xlink:href="#ma995f90288" x="130.071821" y="42.181108" style="fill: #1f77b4; stroke: #1f77b4"/>
     <use xlink:href="#ma995f90288" x="136.710871" y="42.258484" style="fill: #1f77b4; stroke: #1f77b4"/>
     <use xlink:href="#ma995f90288" x="140.342224" y="41.925169" style="fill: #1f77b4; stroke: #1f77b4"/>
     <use xlink:href="#ma995f90288" x="146.197434" y="41.978738" style="fill: #1f77b4; stroke: #1f77b4"/>
     <use xlink:href="#ma995f90288" x="152.052645" y="44.657162" style="fill: #1f77b4; stroke: #1f77b4"/>
     <use xlink:href="#ma995f90288" x="157.907856" y="43.419135" style="fill: #1f77b4; stroke: #1f77b4"/>
     <use xlink:href="#ma995f90288" x="163.763067" y="43.847683" style="fill: #1f77b4; stroke: #1f77b4"/>
     <use xlink:href="#ma995f90288" x="169.619091" y="43.216765" style="fill: #1f77b4; stroke: #1f77b4"/>
     <use xlink:href="#ma995f90288" x="175.474302" y="42.294197" style="fill: #1f77b4; stroke: #1f77b4"/>
     <use xlink:href="#ma995f90288" x="181.330326" y="42.960827" style="fill: #1f77b4; stroke: #1f77b4"/>
     <use xlink:href="#ma995f90288" x="187.18635" y="43.466751" style="fill: #1f77b4; stroke: #1f77b4"/>
     <use xlink:href="#ma995f90288" x="193.041561" y="43.222717" style="fill: #1f77b4; stroke: #1f77b4"/>
     <use xlink:href="#ma995f90288" x="198.897585" y="42.431094" style="fill: #1f77b4; stroke: #1f77b4"/>
     <use xlink:href="#ma995f90288" x="203.572159" y="41.937074" style="fill: #1f77b4; stroke: #1f77b4"/>
    </g>
   </g>
   <g id="patch_3">
    <path d="M 43.78125 173.52 
L 43.78125 7.2 
" style="fill: none; stroke: #000000; stroke-width: 0.8; stroke-linejoin: miter; stroke-linecap: square"/>
   </g>
   <g id="patch_4">
    <path d="M 211.18125 173.52 
L 211.18125 7.2 
" style="fill: none; stroke: #000000; stroke-width: 0.8; stroke-linejoin: miter; stroke-linecap: square"/>
   </g>
   <g id="patch_5">
    <path d="M 43.78125 173.52 
L 211.18125 173.52 
" style="fill: none; stroke: #000000; stroke-width: 0.8; stroke-linejoin: miter; stroke-linecap: square"/>
   </g>
   <g id="patch_6">
    <path d="M 43.78125 7.2 
L 211.18125 7.2 
" style="fill: none; stroke: #000000; stroke-width: 0.8; stroke-linejoin: miter; stroke-linecap: square"/>
   </g>
   <g id="PathCollection_2">
    <defs>
     <path id="mc1acf4fcbe" d="M -3 3 
L 3 -3 
M -3 -3 
L 3 3 
" style="stroke: #008000; stroke-width: 1.5"/>
    </defs>
    <g clip-path="url(#p13057ec332)">
     <use xlink:href="#mc1acf4fcbe" x="121.643114" y="39.476782" style="fill: #008000; stroke: #008000; stroke-width: 1.5"/>
    </g>
   </g>
   <g id="legend_1">
    <g id="patch_7">
     <path d="M 103 168.52 
L 204.18125 168.52 
Q 206.18125 168.52 206.18125 166.52 
L 206.18125 138.16375 
Q 206.18125 136.16375 204.18125 136.16375 
L 103 136.16375 
Q 101 136.16375 101 138.16375 
L 101 166.52 
Q 101 168.52 103 168.52 
z
" style="fill: #ffffff; opacity: 0.8; stroke: #cccccc; stroke-linejoin: miter"/>
    </g>
    <g id="PathCollection_3">
     <g>
      <use xlink:href="#ma995f90288" x="115" y="145.137188" style="fill: #1f77b4; stroke: #1f77b4"/>
     </g>
    </g>
    <g id="text_11">
     <!-- data -->
     <g transform="translate(133 147.762188) scale(0.1 -0.1)">
      <use xlink:href="#DejaVuSans-64"/>
      <use xlink:href="#DejaVuSans-61" transform="translate(63.476562 0)"/>
      <use xlink:href="#DejaVuSans-74" transform="translate(124.755859 0)"/>
      <use xlink:href="#DejaVuSans-61" transform="translate(163.964844 0)"/>
     </g>
    </g>
    <g id="PathCollection_4">
     <g>
      <use xlink:href="#mc1acf4fcbe" x="115" y="159.815313" style="fill: #008000; stroke: #008000; stroke-width: 1.5"/>
     </g>
    </g>
    <g id="text_12">
     <!-- Predicted 24h -->
     <g transform="translate(133 162.440313) scale(0.1 -0.1)">
      <defs>
       <path id="DejaVuSans-50" d="M 1259 4147 
L 1259 2394 
L 2053 2394 
Q 2494 2394 2734 2622 
Q 2975 2850 2975 3272 
Q 2975 3691 2734 3919 
Q 2494 4147 2053 4147 
L 1259 4147 
z
M 628 4666 
L 2053 4666 
Q 2838 4666 3239 4311 
Q 3641 3956 3641 3272 
Q 3641 2581 3239 2228 
Q 2838 1875 2053 1875 
L 1259 1875 
L 1259 0 
L 628 0 
L 628 4666 
z
" transform="scale(0.015625)"/>
       <path id="DejaVuSans-72" d="M 2631 2963 
Q 2534 3019 2420 3045 
Q 2306 3072 2169 3072 
Q 1681 3072 1420 2755 
Q 1159 2438 1159 1844 
L 1159 0 
L 581 0 
L 581 3500 
L 1159 3500 
L 1159 2956 
Q 1341 3275 1631 3429 
Q 1922 3584 2338 3584 
Q 2397 3584 2469 3576 
Q 2541 3569 2628 3553 
L 2631 2963 
z
" transform="scale(0.015625)"/>
      </defs>
      <use xlink:href="#DejaVuSans-50"/>
      <use xlink:href="#DejaVuSans-72" transform="translate(58.552734 0)"/>
      <use xlink:href="#DejaVuSans-65" transform="translate(97.416016 0)"/>
      <use xlink:href="#DejaVuSans-64" transform="translate(158.939453 0)"/>
      <use xlink:href="#DejaVuSans-69" transform="translate(222.416016 0)"/>
      <use xlink:href="#DejaVuSans-63" transform="translate(250.199219 0)"/>
      <use xlink:href="#DejaVuSans-74" transform="translate(305.179688 0)"/>
      <use xlink:href="#DejaVuSans-65" transform="translate(344.388672 0)"/>
      <use xlink:href="#DejaVuSans-64" transform="translate(405.912109 0)"/>
      <use xlink:href="#DejaVuSans-20" transform="translate(469.388672 0)"/>
      <use xlink:href="#DejaVuSans-32" transform="translate(501.175781 0)"/>
      <use xlink:href="#DejaVuSans-34" transform="translate(564.798828 0)"/>
      <use xlink:href="#DejaVuSans-68" transform="translate(628.421875 0)"/>
     </g>
    </g>
   </g>
  </g>
 </g>
 <defs>
  <clipPath id="p13057ec332">
   <rect x="43.78125" y="7.2" width="167.4" height="166.32"/>
  </clipPath>
 </defs>
</svg>
